<svg width="56" height="57" viewBox="0 0 56 57" fill="none" xmlns="http://www.w3.org/2000/svg">
<g clip-path="url(#clip0_422_24434)">
<path d="M54.5247 46.1058L54.0061 45.9668L37.6499 50.3491C36.8426 50.7806 36.0035 51.1601 35.1367 51.4824L51.8821 55.9689C52.7489 56.2012 53.6398 55.6868 53.872 54.82L55.6736 48.0956C55.9058 47.2288 55.3915 46.3379 54.5247 46.1058Z" fill="#20A049"/>
<path d="M22.6641 35.257C22.6641 38.1995 25.058 40.5934 28.0005 40.5934C30.943 40.5934 33.3369 38.1995 33.3369 35.257C33.3369 31.7188 30.1098 27.5698 28.002 25.3535C25.8937 27.5748 22.6641 31.7306 22.6641 35.257Z" fill="#C6D92D"/>
<path d="M45.2885 32.2254C45.2885 24.8603 41.2518 20.7597 37.6905 17.1417C33.6747 13.0622 30.5027 9.83975 32.7616 2.68047C32.9746 2.00522 32.7258 1.26976 32.1465 0.862485C31.5675 0.455324 30.7911 0.470055 30.2277 0.89888C25.479 4.51491 20.5812 8.54299 16.9294 13.4906C12.747 19.1569 10.7139 25.2851 10.7139 32.2254C10.7139 41.7577 18.4689 49.5128 28.0012 49.5128C37.5334 49.5128 45.2885 41.7577 45.2885 32.2254ZM28.0012 43.8429C23.2669 43.8429 19.4152 39.9913 19.4152 35.257C19.4152 28.7179 26.6058 22.1459 26.9118 21.8694C27.5304 21.3105 28.4717 21.3105 29.0903 21.8694C29.3964 22.1459 36.5869 28.7179 36.5869 35.257C36.5871 39.9913 32.7355 43.8429 28.0012 43.8429Z" fill="#20A049"/>
<path d="M1.47615 42.4638L1.99477 42.6027L9.27353 40.6526C8.2781 38.4492 7.66178 36.0398 7.50494 33.5079L4.11875 32.6007C3.252 32.3684 2.3611 32.8828 2.12887 33.7496L0.327242 40.4739C0.0950114 41.3406 0.609406 42.2315 1.47615 42.4638Z" fill="#20A049"/>
<path d="M10.898 43.5815L1.47605 46.106C0.609407 46.3381 0.0950119 47.229 0.327242 48.0957L2.12887 54.8201C2.3611 55.6869 3.252 56.2013 4.11875 55.969L20.8641 51.4825C16.7679 49.9596 13.2856 47.1653 10.898 43.5815Z" fill="#20A049"/>
<path d="M54.5253 42.4639C55.392 42.2316 55.9064 41.3407 55.6742 40.474L53.8726 33.7496C53.6403 32.8828 52.7494 32.3684 51.8827 32.6007L48.4965 33.5079C48.2189 37.99 46.4981 42.0874 43.793 45.3393L54.5253 42.4639Z" fill="#20A049"/>
</g>
<defs>
<clipPath id="clip0_422_24434">
<rect width="55.458" height="55.458" fill="white" transform="translate(0.271484 0.566895)"/>
</clipPath>
</defs>
</svg>
