<svg width="58" height="59" viewBox="0 0 58 59" fill="none" xmlns="http://www.w3.org/2000/svg">
<g clip-path="url(#clip0_325_25441)">
<path fill-rule="evenodd" clip-rule="evenodd" d="M37.7358 13.2906C38.2309 14.2899 38.6765 15.3376 39.0753 16.429C40.181 19.4547 40.8831 22.6753 41.2658 25.9066C41.4028 27.0629 41.4898 28.1496 41.5362 29.1434C41.5665 29.7891 41.5755 30.2942 41.5731 30.6352C41.5454 32.5836 38.9255 33.0117 38.3119 31.2064C38.299 31.1685 38.2706 31.0868 38.2268 30.9645C38.1519 30.7552 38.062 30.5112 37.9574 30.2352C37.6563 29.4411 37.2985 28.554 36.8858 27.5975C35.7069 24.8653 34.3281 22.1341 32.7668 19.5946C32.6086 19.3375 32.4494 19.0835 32.289 18.8329L37.7358 13.2906ZM23.8472 10.243C23.6009 10.0797 23.3513 9.91762 23.0986 9.75676C20.603 8.16811 17.9188 6.76513 15.2336 5.56549C14.2937 5.14556 13.4219 4.78148 12.6415 4.47517C12.3702 4.36868 12.1304 4.27715 11.9248 4.20103C11.8045 4.1564 11.7243 4.12751 11.687 4.11437C9.91286 3.49008 10.3336 0.824135 12.2107 0.796381C12.5836 0.793549 13.0799 0.802838 13.7145 0.833537C14.6911 0.880888 15.7591 0.96936 16.8954 1.1087C20.071 1.49827 23.2361 2.21261 26.2096 3.3376C27.2822 3.74338 28.3118 4.19684 29.294 4.7006L23.8472 10.243ZM20.0222 46.3956L23.4399 45.2364C23.8295 45.1043 24.2531 45.1222 24.6305 45.2867L28.8081 47.1085L27.0352 54.3242C26.923 54.7812 27.196 55.2442 27.6451 55.3585C27.7116 55.3754 27.7798 55.384 27.8484 55.384H28.7124C29.097 55.384 29.4324 55.1176 29.5256 54.738L31.5642 46.441C31.6184 46.2204 31.7153 46.013 31.8494 45.8312L34.364 42.4194C34.478 42.2647 34.6171 42.1309 34.7753 42.0236L35.6547 41.4271L42.6078 47.7948L44.5651 54.7655C44.668 55.1318 44.9968 55.3841 45.3711 55.3841H47.1146C47.5776 55.3841 47.9528 55.0023 47.9528 54.5313C47.9528 54.4521 47.942 54.3731 47.9205 54.297L45.6992 46.3863C45.6127 46.0783 45.4427 45.8012 45.2088 45.587L38.5337 39.474L39.8044 38.612C40.3958 38.2109 41.1715 38.2328 41.7402 38.6668L48.2283 43.6183L52.9996 45.2366C53.5434 45.421 53.9568 45.8754 54.0958 46.4412L56.6105 56.6764C56.875 57.7531 56.0748 58.796 54.9841 58.796H12.2344C11.3085 58.796 10.5579 58.0323 10.5579 57.0902V52.8255C10.5579 52.3073 10.7895 51.8172 11.1871 51.4934L15.3783 48.0816C15.5327 47.956 15.7078 47.859 15.8954 47.7954L16.4654 47.602L19.7785 50.9732V54.5313C19.7785 55.0024 20.1538 55.3841 20.6167 55.3841H22.2931C22.7562 55.3841 23.1313 55.0023 23.1313 54.5313V50.2666C23.1313 49.8141 22.9548 49.3803 22.6403 49.0604L20.0222 46.3956ZM25.9639 19.0914L3.95428 41.4872C3.62687 41.8204 3.09617 41.8204 2.76887 41.4872L1.58345 40.281C1.25604 39.9479 1.25604 39.4078 1.58345 39.0748L23.5931 16.679L25.9639 19.0914ZM30.1849 17.3552C29.5302 18.0214 28.4688 18.0214 27.8141 17.3552L25.2994 14.7964C24.6447 14.1302 24.6447 13.0502 25.2994 12.384L32.0052 5.56051C32.66 4.89431 33.7214 4.89431 34.3761 5.56051L36.8907 8.11929C37.5455 8.78549 37.5455 9.86551 36.8907 10.5317L30.1849 17.3552Z" fill="#33A850"/>
<path d="M23.4397 45.2365L20.0219 46.3957L22.64 49.0605C22.9545 49.3804 23.1311 49.8142 23.1311 50.2667V54.5314C23.1311 55.0024 22.7559 55.3842 22.2929 55.3842H20.6164C20.1535 55.3842 19.7782 55.0025 19.7782 54.5314V50.9733L16.4651 47.6021L15.8951 47.7955C15.7075 47.8591 15.5324 47.9561 15.378 48.0817L11.1868 51.4935C10.7892 51.8173 10.5576 52.3074 10.5576 52.8256V57.0903C10.5576 58.0324 11.3082 58.7961 12.2341 58.7961H54.9838C56.0745 58.7961 56.8747 57.7532 56.6102 56.6765L54.0956 46.4413C53.9565 45.8755 53.5432 45.4211 52.9993 45.2367L48.2281 43.6184L41.7399 38.6669C41.1712 38.2329 40.3955 38.211 39.8041 38.6121L38.5334 39.4741L45.2085 45.5871C45.4424 45.8013 45.6124 46.0784 45.6989 46.3864L47.9202 54.2971C47.9417 54.3732 47.9525 54.4522 47.9525 54.5314C47.9525 55.0024 47.5773 55.3842 47.1143 55.3842H45.3708C44.9966 55.3842 44.6677 55.1319 44.5648 54.7656L42.6076 47.7949L35.6544 41.4272L34.775 42.0237C34.6168 42.131 34.4778 42.2648 34.3638 42.4195L31.8491 45.8313C31.7151 46.0131 31.6181 46.2205 31.5639 46.4411L29.5254 54.7381C29.4321 55.1177 29.0968 55.3841 28.7121 55.3841H27.8481C27.7795 55.3841 27.7113 55.3755 27.6448 55.3586C27.1957 55.2443 26.9228 54.7812 27.035 54.3243L28.8079 47.1086L24.6302 45.2868C24.2528 45.1223 23.8292 45.1044 23.4397 45.2365Z" fill="#C6D92D"/>
</g>
<defs>
<clipPath id="clip0_325_25441">
<rect width="57" height="58" fill="white" transform="translate(0.5 0.795898)"/>
</clipPath>
</defs>
</svg>
