<svg width="56" height="55" viewBox="0 0 56 55" fill="none" xmlns="http://www.w3.org/2000/svg">
<path d="M23.0838 11.4624H22.3307C21.448 11.4624 20.7334 12.118 20.7334 12.9279V19.135H24.6822V12.9279C24.6811 12.1191 23.9666 11.4624 23.0838 11.4624Z" fill="#C6D92D"/>
<path d="M33.6707 11.4624H32.9165C32.0359 11.4624 31.3203 12.118 31.3203 12.9279V19.135H35.2702V12.9279C35.268 12.1191 34.5535 11.4624 33.6707 11.4624Z" fill="#C6D92D"/>
<path d="M28.001 0.606934C12.6675 0.606934 0.193359 13.0811 0.193359 28.4146C0.193359 35.8173 3.06872 42.7839 8.29022 48.0311C11.382 51.1379 15.2087 53.499 19.3557 54.851C19.632 54.9421 19.9127 54.9849 20.1881 54.9849C21.3151 54.9849 22.3639 54.2671 22.7335 53.1369C23.193 51.7303 22.4249 50.2176 21.0194 49.7602C17.6737 48.6664 14.5852 46.7616 12.088 44.2516C7.87242 40.0157 5.55092 34.3914 5.55092 28.4146C5.55092 16.0347 15.6222 5.96342 28.0021 5.96342C40.382 5.96342 50.4533 16.0347 50.4533 28.4146C50.4533 34.4139 48.1189 40.0478 43.8819 44.2869C42.2546 45.746 38.2191 48.6835 35.7947 48.6835C34.5499 48.6835 33.62 48.2914 32.8636 47.4515C30.9471 45.3165 30.5261 40.9938 30.5443 37.9813C35.1926 37.7467 38.8929 33.9146 38.8929 29.2095V20.8748H17.1091V29.2095C17.1091 33.8236 20.6637 37.5999 25.1835 37.9695C25.1557 41.5583 25.6592 47.4398 28.8677 51.0233C30.6375 52.9998 33.035 54.0422 35.7947 54.0422C40.9755 54.0422 46.8741 48.8089 47.5276 48.2143L47.6133 48.1329C52.899 42.876 55.8065 35.8751 55.8065 28.4189C55.8087 13.0811 43.3345 0.606934 28.001 0.606934Z" fill="#20A049"/>
</svg>
