<svg width="68" height="44" viewBox="0 0 68 44" fill="none" xmlns="http://www.w3.org/2000/svg">
<path d="M27.2011 8.20312L43.5526 24.556L29.2125 38.8961C25.832 42.4198 19.7523 42.4191 16.3723 38.896L15.5752 38.099L10.095 43.5805L0.959961 34.4455L27.2011 8.20312ZM19.1138 36.156C21.049 38.1747 24.5353 38.1755 26.4711 36.156L35.3478 27.2793L24.0747 24.1193L15.5752 32.6188L19.1138 36.156Z" fill="#20A049"/>
<path d="M34.9668 10.4873L45.4428 0.0112305L62.6497 0.0176904V8.92922L49.2178 8.84267L41.341 16.8615L34.9668 10.4873Z" fill="#20A049"/>
<path d="M59.8616 22.9102C63.2991 26.2349 67.0415 31.0214 67.0415 34.6537C67.0415 38.6104 63.8213 41.8307 59.8616 41.8307C55.9048 41.8307 52.6846 38.6105 52.6846 34.6537C52.6846 31.0214 56.4241 26.2347 59.8616 22.9102Z" fill="#C6D92D"/>
</svg>
