<svg width="66" height="66" viewBox="0 0 66 66" fill="none" xmlns="http://www.w3.org/2000/svg">
<g clip-path="url(#clip0_422_24447)">
<path d="M63.4994 47.7071H45.1996V36.1851V10.4298C45.1996 9.30741 44.2887 8.39648 43.1663 8.39648C42.0439 8.39648 41.133 9.30741 41.133 10.4298V34.1517H38.346L31.9668 16.0824C30.9177 13.1056 28.0927 11.1076 24.937 11.1076H16.0555C14.9331 11.1076 14.0222 12.0185 14.0222 13.1409V27.374H7.92227C3.80956 27.374 0.466797 30.7168 0.466797 34.8295V47.0294C0.466797 49.6456 2.595 51.7738 5.21119 51.7738H6.02722C6.65619 54.8644 9.39438 57.1959 12.6667 57.1959C15.9389 57.1959 18.6771 54.8644 19.3061 51.7738H25.0021C25.631 54.8644 28.3692 57.1959 31.6415 57.1959C34.9138 57.1959 37.652 54.8644 38.2809 51.7738H43.1636H63.4967C64.6191 51.7738 65.53 50.8628 65.53 49.7405C65.53 48.6181 64.6218 47.7071 63.4994 47.7071ZM18.0888 15.1742H24.937C26.3712 15.1742 27.6562 16.0824 28.1334 17.4352L34.0327 34.1517H21.4777C19.6097 34.1517 18.0888 32.6308 18.0888 30.7629V29.4074V15.1742ZM12.6667 53.1293C11.1701 53.1293 9.95558 51.912 9.95558 50.4182C9.95558 48.9244 11.1701 47.7071 12.6667 47.7071C14.1632 47.7071 15.3777 48.9244 15.3777 50.4182C15.3777 51.912 14.1632 53.1293 12.6667 53.1293ZM31.6442 53.1293C30.1477 53.1293 28.9331 51.912 28.9331 50.4182C28.9331 48.9244 30.1477 47.7071 31.6442 47.7071C33.1407 47.7071 34.3553 48.9244 34.3553 50.4182C34.3553 51.912 33.1407 53.1293 31.6442 53.1293Z" fill="#20A049"/>
<path d="M59.4341 30.0845V32.1178C59.4341 33.2402 58.5232 34.1511 57.4008 34.1511C56.2784 34.1511 55.3675 33.2402 55.3675 32.1178V30.0845H50.6231C49.8749 30.0845 49.2676 30.6918 49.2676 31.44V42.2843C49.2676 43.0326 49.8749 43.6399 50.6231 43.6399H64.1785C64.9268 43.6399 65.5341 43.0326 65.5341 42.2843V31.44C65.5341 30.6918 64.9268 30.0845 64.1785 30.0845H59.4341Z" fill="#C6D92D"/>
<path d="M59.4341 13.8179V15.8512C59.4341 16.9736 58.5232 17.8845 57.4008 17.8845C56.2784 17.8845 55.3675 16.9736 55.3675 15.8512V13.8179H50.6231C49.8749 13.8179 49.2676 14.4252 49.2676 15.1734V26.0177C49.2676 26.766 49.8749 27.3733 50.6231 27.3733H64.1785C64.9268 27.3733 65.5341 26.766 65.5341 26.0177V15.1734C65.5341 14.4252 64.9268 13.8179 64.1785 13.8179H59.4341Z" fill="#C6D92D"/>
</g>
<defs>
<clipPath id="clip0_422_24447">
<rect width="65.0659" height="65.0659" fill="white" transform="translate(0.466797 0.262695)"/>
</clipPath>
</defs>
</svg>
