<svg width="60" height="59" viewBox="0 0 60 59" fill="none" xmlns="http://www.w3.org/2000/svg">
<path d="M19.3613 55.9106C19.3613 56.1671 19.4632 56.4131 19.6446 56.5945C19.826 56.7759 20.072 56.8778 20.3285 56.8778H39.6724C39.929 56.8778 40.175 56.7759 40.3563 56.5945C40.5377 56.4131 40.6396 56.1671 40.6396 55.9106V54.9434H19.3613V55.9106Z" fill="#20A049"/>
<path d="M29.0335 6.58363H27.0991C26.8426 6.58363 26.5965 6.48173 26.4152 6.30034C26.2338 6.11896 26.1319 5.87295 26.1319 5.61643C26.1319 5.35991 26.2338 5.1139 26.4152 4.93252C26.5965 4.75114 26.8426 4.64924 27.0991 4.64924H32.9022C33.1588 4.64924 33.4048 4.75114 33.5862 4.93252C33.7675 5.1139 33.8694 5.35991 33.8694 5.61643C33.8694 5.87295 33.7675 6.11896 33.5862 6.30034C33.4048 6.48173 33.1588 6.58363 32.9022 6.58363H30.9679V10.4524H38.7054V3.68204C38.7054 3.42552 38.6035 3.17951 38.4221 2.99813C38.2408 2.81674 37.9947 2.71484 37.7382 2.71484H22.2631C22.0066 2.71484 21.7606 2.81674 21.5792 2.99813C21.3978 3.17951 21.2959 3.42552 21.2959 3.68204V10.4524H29.0335V6.58363Z" fill="#20A049"/>
<path d="M13.5586 48.1728C13.5601 49.4549 14.0701 50.684 14.9767 51.5906C15.8833 52.4972 17.1125 53.0072 18.3946 53.0087H41.6073C42.8894 53.0072 44.1185 52.4972 45.0251 51.5906C45.9317 50.684 46.4417 49.4549 46.4432 48.1728V47.2056H13.5586V48.1728Z" fill="#20A049"/>
<path d="M13.5586 45.2711H46.4432V20.124H13.5586V45.2711ZM22.6251 32.0737C23.0548 31.4379 23.309 30.6999 23.3621 29.9343C23.362 29.7858 23.396 29.6394 23.4616 29.5062C23.5272 29.373 23.6225 29.2567 23.7403 29.1663C23.8585 29.0766 23.9957 29.015 24.1413 28.9862C24.2869 28.9574 24.4372 28.9621 24.5808 29C24.9025 29.1011 25.1992 29.2692 25.4512 29.4932C25.8111 28.4326 26.3549 27.4435 27.0577 26.5714C28.9273 24.2066 29.0337 23.0034 29.0337 22.9908C29.0476 22.7949 29.1193 22.6076 29.2399 22.4526C29.3604 22.2976 29.5243 22.182 29.7108 22.1203C29.8956 22.0608 30.0941 22.0583 30.2804 22.1131C30.4668 22.168 30.6322 22.2777 30.7553 22.4279C31.5816 23.538 32.2234 24.7742 32.6559 26.0887C32.8693 25.8546 33.1073 25.6441 33.3658 25.461C33.5106 25.3587 33.6808 25.2982 33.8576 25.286C34.0345 25.2739 34.2114 25.3106 34.3688 25.3922C34.5262 25.4737 34.6582 25.597 34.7503 25.7485C34.8424 25.9 34.8911 26.0739 34.8911 26.2512C34.9985 27.5481 35.4025 28.8029 36.072 29.9188C36.3012 30.3212 36.5266 30.6926 36.7423 31.0533C37.975 32.7362 38.6605 34.7574 38.7057 36.843C38.7057 39.2687 37.575 43.3367 30.0009 43.3367C24.4686 43.3367 21.2962 40.97 21.2962 36.843C21.2907 35.1611 21.7506 33.5104 22.6251 32.0737Z" fill="#20A049"/>
<path d="M41.6073 12.3867H18.3946C17.1125 12.3883 15.8833 12.8983 14.9767 13.8048C14.0701 14.7114 13.5601 15.9406 13.5586 17.2227V18.1899H46.4432V17.2227C46.4417 15.9406 45.9317 14.7114 45.0251 13.8048C44.1185 12.8983 42.8894 12.3883 41.6073 12.3867Z" fill="#20A049"/>
<path d="M30.0008 41.4023C34.4935 41.4023 36.7712 39.8684 36.7712 36.843C36.7712 34.8399 36.0661 33.6696 35.0902 32.0486C34.8658 31.6772 34.6327 31.2903 34.3958 30.8725C33.9717 30.13 33.6295 29.3435 33.3754 28.527C33.2728 28.7576 33.1887 28.996 33.1239 29.2399C33.0658 29.4688 32.9269 29.669 32.7328 29.8036C32.5387 29.9381 32.3025 29.998 32.0677 29.972C31.833 29.9439 31.6167 29.8307 31.4597 29.654C31.3027 29.4772 31.2159 29.249 31.2156 29.0126C31.1763 27.7068 30.842 26.4268 30.2378 25.2686C29.7636 26.1524 29.208 26.9901 28.5781 27.7707C26.7288 30.1113 27.0122 31.9896 27.0257 32.0679C27.065 32.3071 27.0138 32.5523 26.882 32.7556C26.7501 32.959 26.5473 33.1059 26.3129 33.1676C26.0801 33.2268 25.8335 33.1972 25.6213 33.0846C25.4091 32.9719 25.2464 32.7843 25.1649 32.5583C25.0851 32.3288 24.9908 32.1046 24.8824 31.8871C24.718 32.274 24.5236 32.6357 24.3321 32.9916C23.6107 34.1466 23.2289 35.4812 23.2305 36.843C23.2305 40.6121 26.9126 41.4023 30.0008 41.4023Z" fill="#C6D92D"/>
</svg>
