<svg width="54" height="55" viewBox="0 0 54 55" fill="none" xmlns="http://www.w3.org/2000/svg">
<path d="M2.79004 19.3926V44.2242H36.8718C38.2553 42.9922 40.0765 42.2415 42.0704 42.2415C44.0643 42.2415 45.8854 42.9921 47.2688 44.2242H51.2105V19.3926H2.79004ZM14.4788 37.7183H11.322V25.267H14.4788V37.7183ZM20.5854 37.7183H17.4285V25.267H20.5854V37.7183ZM26.6921 37.7183H23.5352V25.267H26.6921V37.7183ZM39.7322 38.0301L36.7372 37.0319L38.0576 33.0712H33.8311L36.5365 24.9552L39.5314 25.9534L38.2111 29.9143H42.4375L39.7322 38.0301Z" fill="#33A850"/>
<path d="M7.17383 54.7365H10.3307V51.4858H34.3755C34.2909 51.0257 34.2445 50.5524 34.2445 50.0682C34.2445 49.1247 34.4123 48.2196 34.7197 47.3813H7.17383V54.7365Z" fill="#33A850"/>
<path d="M53.9296 16.2358V14.0692C53.9296 10.2398 50.8143 7.12432 46.9849 7.12432H44.8992V4.01089H48.6499V0.854004H37.9916V4.01089H41.7423V7.12432H7.01602C3.18661 7.12432 0.0712891 10.2398 0.0712891 14.0692V16.2358H53.9296Z" fill="#33A850"/>
<path d="M42.0709 45.3984C39.4961 45.3984 37.4014 47.4931 37.4014 50.068C37.4014 52.6429 39.4961 54.7376 42.0709 54.7376C44.6457 54.7376 46.7404 52.6429 46.7404 50.068C46.7404 49.0682 46.4235 48.1417 45.8865 47.3812H45.8527V47.3336C45.0034 46.1623 43.6251 45.3984 42.0709 45.3984Z" fill="#C6D92D"/>
</svg>
