<svg width="118" height="80" viewBox="0 0 118 80" fill="none" xmlns="http://www.w3.org/2000/svg">
<path d="M15.1136 61.3218C15.1434 60.8126 15.197 60.3074 15.2566 59.8231C15.7528 59.8737 16.2401 59.9144 16.7215 59.9333C18.0037 59.9812 19.2872 59.8867 20.5485 59.6514C21.0448 59.5521 21.5261 59.436 21.9956 59.2971C19.9604 57.7328 18.3694 55.6638 17.3804 53.295C16.3914 50.9263 16.0387 48.3403 16.3572 45.7932C16.6163 43.7129 17.3193 41.7126 18.4186 39.9276C18.4097 39.9047 18.3998 39.8829 18.3909 39.8601C18.3333 39.7201 18.2767 39.5792 18.2211 39.4353C18.1656 39.2914 18.1219 39.1514 18.0713 39.0075C17.972 38.7187 17.8787 38.419 17.7963 38.1143C17.714 37.8096 17.6425 37.5118 17.573 37.1992C17.5373 37.0414 17.5065 36.8866 17.4797 36.7307C17.4529 36.5749 17.4261 36.4161 17.4003 36.2563C17.3745 36.0965 17.3517 35.9358 17.3289 35.772C17.3061 35.6082 17.2932 35.4504 17.2773 35.2867C17.2475 34.9621 17.2187 34.6267 17.2038 34.2942C17.1889 33.9617 17.1879 33.6252 17.1899 33.2818C16.8512 33.2739 16.5064 33.2739 16.1558 33.2818C15.8094 33.2898 15.461 33.3116 15.1097 33.3354C14.933 33.3493 14.7524 33.3612 14.5757 33.3811L14.0457 33.4456L13.5068 33.521C13.3252 33.5468 13.1445 33.5766 12.9679 33.6123C12.6106 33.6808 12.2473 33.7562 11.8761 33.8396C11.5049 33.923 11.1546 34.0252 10.7844 34.1304C10.6018 34.183 10.4162 34.2366 10.2335 34.2952L9.68966 34.4808H9.67676C7.7968 37.5307 6.59641 40.9501 6.15737 44.5059C5.73902 47.7636 5.97098 51.0718 6.83983 54.2392C7.70868 57.4066 9.19715 60.3702 11.2191 62.9584C12.5092 64.6217 14.003 66.1165 15.6655 67.4077C15.5278 66.8235 15.4144 66.2416 15.325 65.6619C15.1075 64.2261 15.0367 62.7719 15.1136 61.3218ZM42.6305 56.5905C41.0666 58.6263 38.9977 60.2178 36.629 61.2074C34.2602 62.1969 31.674 62.5501 29.1267 62.2319C27.0464 61.9728 25.046 61.2698 23.261 60.1705L23.1935 60.1983C23.0546 60.2558 22.9127 60.3124 22.7687 60.368C22.6248 60.4236 22.4859 60.4672 22.341 60.5178C22.0532 60.6171 21.7534 60.7104 21.4537 60.7928C21.154 60.8751 20.8502 60.9466 20.5386 61.0161C20.3808 61.0518 20.225 61.0826 20.0701 61.1094C19.9153 61.1362 19.7555 61.163 19.5957 61.1888C19.4359 61.2146 19.2742 61.2374 19.1104 61.2602C18.9466 61.2831 18.7888 61.296 18.6251 61.3118C18.3005 61.3416 17.9651 61.3704 17.6326 61.3853C17.3001 61.4002 16.9646 61.4012 16.6212 61.3992C16.6133 61.7379 16.6113 62.0827 16.6153 62.4334C16.6232 62.7797 16.6451 63.1281 16.6699 63.4804C16.6828 63.6561 16.6957 63.8367 16.7145 64.0134L16.779 64.5434L16.8545 65.0823C16.8813 65.2639 16.911 65.4446 16.9458 65.6212C17.0143 65.9785 17.0897 66.3418 17.1731 66.708C17.2564 67.0743 17.3596 67.4296 17.4639 67.7998C17.5175 67.9824 17.5701 68.168 17.6286 68.3506L17.8142 68.8945L17.8192 68.9074C20.8682 70.7898 24.2873 71.9926 27.8434 72.4337C31.1008 72.852 34.4089 72.62 37.5761 71.7511C40.7433 70.8823 43.7067 69.3939 46.2948 67.372C47.9581 66.0819 49.4529 64.5881 50.7442 62.9256C50.1616 63.0586 42.7705 57.06 42.6305 56.5905Z" fill="url(#paint0_linear_581_13013)"/>
<path d="M47.6246 34.8509L43.5306 23.4928L42.284 25.326C39.713 24.0237 36.9361 23.1759 34.0761 22.8199C30.8185 22.4016 27.5102 22.6336 24.3429 23.5025C21.1755 24.3713 18.2119 25.8598 15.6237 27.8816C13.9604 29.1718 12.4656 30.6656 11.1743 32.328C11.7586 32.1897 12.3405 32.0763 12.9201 31.9876C14.3558 31.7692 15.8101 31.6981 17.2603 31.7752C17.7694 31.806 18.2746 31.8596 18.7599 31.9191C18.7083 32.4154 18.6676 32.9017 18.6488 33.383C18.6024 34.6654 18.6986 35.949 18.9356 37.2101C19.0349 37.7063 19.151 38.1877 19.2899 38.6581C20.8542 36.6229 22.9233 35.032 25.292 34.0429C27.6607 33.0539 30.2468 32.7012 32.7938 33.0198C34.0408 33.1763 35.2627 33.4922 36.4293 33.9597L35.5569 35.2499L47.6246 34.8509Z" fill="url(#paint1_linear_581_13013)"/>
<path d="M111.252 69.9308V73.1683H101.206V71.2637C102.028 70.3559 102.972 69.3886 104.039 68.3617C106.427 66.0789 107.621 64.3322 107.621 63.1213C107.621 61.5095 106.983 60.7036 105.706 60.7036C104.153 60.7036 103.377 61.6776 103.377 63.6255C103.377 64.0887 103.489 64.7364 103.712 65.5688L101.628 65.0726C101.491 64.5874 101.411 64.0877 101.392 63.5838C101.392 60.8538 103.079 59.4885 106.454 59.4878C107.881 59.4878 109.055 59.8398 109.976 60.5438C110.897 61.2478 111.359 62.15 111.361 63.2503C111.361 64.5075 110.45 65.8758 108.628 67.3553L107.404 68.3418L106.052 69.4772C105.966 69.55 105.756 69.7012 105.42 69.9308H111.252Z" fill="#20A049"/>
<path d="M21.5618 17.7751C21.2482 17.7751 20.9187 17.7681 20.5753 17.7552C20.2319 17.7423 19.8905 17.7225 19.553 17.6967C19.2156 17.6709 18.899 17.6361 18.6072 17.5974V8.53399C18.9208 8.47047 19.2602 8.41588 19.6255 8.36824C19.9907 8.3206 20.3639 8.28388 20.746 8.2551C21.1281 8.22631 21.4963 8.21143 21.8536 8.21143C23.3754 8.21143 24.4794 8.42878 25.1656 8.86349C25.8517 9.29821 26.1955 9.94762 26.1968 10.8118C26.1999 11.1425 26.1248 11.4694 25.9774 11.7655C25.8295 12.0585 25.6104 12.3097 25.3403 12.496C25.0348 12.7029 24.6868 12.8386 24.322 12.893L24.3299 12.8146C24.7278 12.8605 25.1126 12.9846 25.4623 13.1798C25.7742 13.3559 26.0322 13.6136 26.2087 13.9252C26.3935 14.2745 26.4844 14.6657 26.4727 15.0606C26.4887 15.5942 26.3178 16.1166 25.9893 16.5375C25.6678 16.9404 25.147 17.2481 24.4272 17.4605C23.7073 17.6729 22.7522 17.7777 21.5618 17.7751ZM22.0085 16.3767C22.6357 16.3767 23.1293 16.3244 23.4893 16.2199C23.8492 16.1153 24.1063 15.9595 24.2604 15.7524C24.4214 15.5246 24.5027 15.25 24.4917 14.9713C24.4917 14.5048 24.3309 14.1618 24.0093 13.9421C23.6878 13.7224 23.1627 13.6126 22.4342 13.6126H20.4373V12.1675H22.2357C22.9636 12.1675 23.4681 12.06 23.7493 11.8449C24.0305 11.6299 24.1724 11.3183 24.1751 10.91C24.1751 10.4541 24.0169 10.1256 23.7007 9.92446C23.3844 9.72332 22.8527 9.62407 22.1057 9.62672C21.8506 9.62672 21.6035 9.63565 21.3623 9.65352C21.1212 9.67138 20.8909 9.70016 20.6676 9.73589V16.3102C20.9058 16.337 21.1321 16.3548 21.3455 16.3658C21.5589 16.3767 21.7812 16.3787 22.0085 16.3787V16.3767Z" fill="#0F1528"/>
<path d="M30.0448 17.6691V12.8942L30.4825 14.3551L26.3428 8.32275H28.6404L31.4809 12.4773H30.8566L33.6813 8.32275H35.8161L31.7638 14.3591L32.2015 12.921V17.6691H30.0448Z" fill="#0F1528"/>
<path d="M36.7659 17.6691V8.32275H43.893V9.87005H38.8759V16.1228H43.9654V17.6691H36.7659ZM38.0482 13.6792V12.1319H43.1943V13.6792H38.0482Z" fill="#0F1528"/>
<path d="M10.1047 8.59689L10.6437 9.27079L11.2441 8.77951L10.7141 8.12744L10.1047 8.59689Z" fill="url(#paint2_linear_581_13013)"/>
<path d="M11.9915 8.51637L11.8297 8.31787L11.2719 8.77442L11.7741 9.40465L11.1409 9.92373L10.6397 9.29547L10.0551 9.77386L9.48839 9.06422L8.87305 9.5297L9.40502 10.2155L9.07254 10.4954L11.1012 12.9975C12.8718 10.5748 12.3736 9.11484 11.9915 8.51637Z" fill="url(#paint3_linear_581_13013)"/>
<path d="M8.84882 7.54858L8.77637 8.22844L9.15748 7.92474L8.84882 7.54858Z" fill="#85C341"/>
<path d="M9.50382 6.85767L9.43335 7.52164L9.80454 7.22489L9.50382 6.85767Z" fill="#85C341"/>
<path d="M8.02801 7.47021L7.97144 8.00616L8.27117 7.76697L8.02801 7.47021Z" fill="#85C341"/>
<path d="M7.19946 8.35644L7.43766 8.16688L7.24413 7.93066L7.19946 8.35644Z" fill="#85C341"/>
<path d="M8.29899 8.125L8.24341 8.65598L8.54016 8.41977L8.29899 8.125Z" fill="#85C341"/>
<path d="M8.90137 9.13061L9.30134 8.81202L8.9768 8.41602L8.90137 9.13061Z" fill="#85C341"/>
<path d="M10.0498 8.31665L10.552 7.91667L10.1451 7.41943L10.0498 8.31665Z" fill="#85C341"/>
<path d="M9.77295 9.22676L10.2136 8.87443L9.85632 8.43872L9.77295 9.22676Z" fill="#85C341"/>
<path d="M8.43794 6.83203L8.38037 7.36798L8.6801 7.12879L8.43794 6.83203Z" fill="#85C341"/>
<path d="M9.3125 8.46858L9.55368 8.27604L9.35815 8.03784L9.3125 8.46858Z" fill="#85C341"/>
<path d="M8.29907 9.48783L8.573 9.26949L8.35068 8.99854L8.29907 9.48783Z" fill="#85C341"/>
<path d="M6.6377 7.8681L6.81436 7.72717L6.67144 7.55249L6.6377 7.8681Z" fill="#85C341"/>
<path d="M7.28271 7.56633L7.45938 7.42639L7.31646 7.25171L7.28271 7.56633Z" fill="#85C341"/>
<path d="M8.60474 10.2143L8.98486 9.91156L8.67719 9.5354L8.60474 10.2143Z" fill="url(#paint4_linear_581_13013)"/>
<path d="M7.6709 8.95879L7.91009 8.76724L7.71655 8.53003L7.6709 8.95879Z" fill="#85C341"/>
<path d="M11.0442 7.66748L10.9846 8.22923L11.2992 7.97813L11.0442 7.66748Z" fill="#85C341"/>
<path d="M10.5322 7.45825L10.8468 7.20715L10.5918 6.89551L10.5322 7.45825Z" fill="#85C341"/>
<path d="M8.84888 7.54858L8.46875 7.85229L8.77642 8.22844L8.84888 7.54858Z" fill="url(#paint5_linear_581_13013)"/>
<path d="M9.50399 6.85767L9.13379 7.15343L9.43352 7.52164L9.50399 6.85767Z" fill="url(#paint6_linear_581_13013)"/>
<path d="M7.72827 7.70941L7.97143 8.00616L8.028 7.47021L7.72827 7.70941Z" fill="url(#paint7_linear_581_13013)"/>
<path d="M7.1994 8.35644L7.24406 7.93066L7.00586 8.12023L7.1994 8.35644Z" fill="url(#paint8_linear_581_13013)"/>
<path d="M8.29895 8.125L8.0022 8.36221L8.24337 8.65598L8.29895 8.125Z" fill="url(#paint9_linear_581_13013)"/>
<path d="M8.90145 9.13061L8.97688 8.41602L8.5769 8.73461L8.90145 9.13061Z" fill="url(#paint10_linear_581_13013)"/>
<path d="M10.0497 8.31665L10.145 7.41943L9.64282 7.8204L10.0497 8.31665Z" fill="url(#paint11_linear_581_13013)"/>
<path d="M9.77282 9.22676L9.85619 8.43872L9.41553 8.79006L9.77282 9.22676Z" fill="url(#paint12_linear_581_13013)"/>
<path d="M8.43793 6.83203L8.13721 7.07122L8.38037 7.36798L8.43793 6.83203Z" fill="url(#paint13_linear_581_13013)"/>
<path d="M9.31246 8.46858L9.35812 8.03784L9.11694 8.22939L9.31246 8.46858Z" fill="url(#paint14_linear_581_13013)"/>
<path d="M8.35057 8.99854L8.07764 9.21688L8.29896 9.48783L8.35057 8.99854Z" fill="url(#paint15_linear_581_13013)"/>
<path d="M6.63755 7.8681L6.67129 7.55249L6.49463 7.69342L6.63755 7.8681Z" fill="url(#paint16_linear_581_13013)"/>
<path d="M7.28281 7.56633L7.31656 7.25171L7.13989 7.39165L7.28281 7.56633Z" fill="url(#paint17_linear_581_13013)"/>
<path d="M8.60479 10.2143L8.67724 9.5354L8.29712 9.83811L8.60479 10.2143Z" fill="url(#paint18_linear_581_13013)"/>
<path d="M7.67085 8.95879L7.7165 8.53003L7.47632 8.72059L7.67085 8.95879Z" fill="url(#paint19_linear_581_13013)"/>
<path d="M10.7297 7.91759L10.9848 8.22923L11.0444 7.66748L10.7297 7.91759Z" fill="url(#paint20_linear_581_13013)"/>
<path d="M10.5322 7.45825L10.5917 6.89551L10.2771 7.14661L10.5322 7.45825Z" fill="url(#paint21_linear_581_13013)"/>
<path d="M9.13984 18.435L9.4485 18.0578L9.06738 17.7551L9.13984 18.435Z" fill="url(#paint22_linear_581_13013)"/>
<path d="M9.79508 19.1247L10.0958 18.7574L9.72461 18.4617L9.79508 19.1247Z" fill="url(#paint23_linear_581_13013)"/>
<path d="M8.31902 18.5123L8.56218 18.2155L8.26245 17.9763L8.31902 18.5123Z" fill="url(#paint24_linear_581_13013)"/>
<path d="M7.49048 17.627L7.53514 18.0527L7.72868 17.8165L7.49048 17.627Z" fill="url(#paint25_linear_581_13013)"/>
<path d="M8.53345 17.3262L8.59002 17.8572L8.8312 17.5634L8.53345 17.3262Z" fill="url(#paint26_linear_581_13013)"/>
<path d="M9.26783 17.5674L9.59237 17.1714L9.19141 16.8518L9.26783 17.5674Z" fill="url(#paint27_linear_581_13013)"/>
<path d="M10.3408 17.6658L10.4361 18.563L10.843 18.0667L10.3408 17.6658Z" fill="url(#paint28_linear_581_13013)"/>
<path d="M10.063 16.7566L10.1474 17.5446L10.5046 17.1079L10.063 16.7566Z" fill="url(#paint29_linear_581_13013)"/>
<path d="M8.72796 19.1514L8.97112 18.8547L8.67139 18.6155L8.72796 19.1514Z" fill="url(#paint30_linear_581_13013)"/>
<path d="M9.60352 17.5149L9.64917 17.9456L9.84469 17.7074L9.60352 17.5149Z" fill="url(#paint31_linear_581_13013)"/>
<path d="M8.86302 16.714L8.59009 16.4956L8.6417 16.9849L8.86302 16.714Z" fill="url(#paint32_linear_581_13013)"/>
<path d="M6.96246 18.4299L7.10537 18.2562L6.92871 18.1152L6.96246 18.4299Z" fill="url(#paint33_linear_581_13013)"/>
<path d="M7.60748 18.7316L7.75039 18.5569L7.57373 18.416L7.60748 18.7316Z" fill="url(#paint34_linear_581_13013)"/>
<path d="M9.27588 16.0718L8.89575 15.769L8.9682 16.4479L9.27588 16.0718Z" fill="url(#paint35_linear_581_13013)"/>
<path d="M8.00757 17.4534L8.20111 17.2162L7.96191 17.0247L8.00757 17.4534Z" fill="url(#paint36_linear_581_13013)"/>
<path d="M11.2759 17.7542L11.3354 18.3159L11.5905 18.0043L11.2759 17.7542Z" fill="url(#paint37_linear_581_13013)"/>
<path d="M10.8828 19.0879L11.1379 18.7762L10.8232 18.5251L10.8828 19.0879Z" fill="url(#paint38_linear_581_13013)"/>
<path d="M8.7583 18.1313L9.13942 18.435L9.06697 17.7551L8.7583 18.1313Z" fill="#85C341"/>
<path d="M9.42334 18.8289L9.79453 19.1247L9.72407 18.4617L9.42334 18.8289Z" fill="#85C341"/>
<path d="M8.01904 18.2731L8.31878 18.5123L8.2622 17.9763L8.01904 18.2731Z" fill="#85C341"/>
<path d="M7.48992 17.627L7.29639 17.8622L7.53459 18.0527L7.48992 17.627Z" fill="#85C341"/>
<path d="M8.53291 17.3262L8.29272 17.6209L8.58948 17.8572L8.53291 17.3262Z" fill="#85C341"/>
<path d="M8.86743 17.2478L9.26741 17.5674L9.19098 16.8518L8.86743 17.2478Z" fill="#85C341"/>
<path d="M9.93335 18.163L10.4356 18.563L10.3403 17.6658L9.93335 18.163Z" fill="#85C341"/>
<path d="M10.0626 16.7566L9.7063 17.1933L10.147 17.5446L10.0626 16.7566Z" fill="#85C341"/>
<path d="M8.42773 18.9122L8.72747 19.1514L8.6709 18.6155L8.42773 18.9122Z" fill="#85C341"/>
<path d="M9.60299 17.5149L9.40747 17.7541L9.64865 17.9456L9.60299 17.5149Z" fill="#85C341"/>
<path d="M8.58951 16.4956L8.36719 16.7666L8.64112 16.9849L8.58951 16.4956Z" fill="#85C341"/>
<path d="M6.78516 18.2899L6.96182 18.4299L6.92808 18.1152L6.78516 18.2899Z" fill="#85C341"/>
<path d="M7.43042 18.5907L7.60708 18.7316L7.57334 18.416L7.43042 18.5907Z" fill="#85C341"/>
<path d="M8.89532 15.769L8.58765 16.1452L8.96777 16.4479L8.89532 15.769Z" fill="#85C341"/>
<path d="M7.76685 17.2619L8.00703 17.4534L7.96137 17.0247L7.76685 17.2619Z" fill="#85C341"/>
<path d="M11.2753 17.7542L11.0203 18.0648L11.3349 18.3159L11.2753 17.7542Z" fill="#85C341"/>
<path d="M10.5676 18.8368L10.8822 19.0879L10.8227 18.5251L10.5676 18.8368Z" fill="#85C341"/>
<path d="M9.77793 16.9216L10.292 16.2794L9.68463 15.7842L9.16357 16.4561L9.77793 16.9216Z" fill="url(#paint39_linear_581_13013)"/>
<path d="M10.1757 15.129L10.8159 15.6561L10.3573 16.2218L10.9429 16.7012L10.4576 17.3086L11.0531 17.7929H11.06L11.5454 17.1974L11.9533 17.5309L15.6255 12.9992L11.992 8.51904C12.3741 9.11454 12.8723 10.5775 11.0987 12.9992L9.19116 15.3504L9.6755 15.7573L10.1757 15.129Z" fill="url(#paint40_linear_581_13013)"/>
<path d="M71.5963 35.7691C71.5969 35.7773 71.5969 35.7856 71.5963 35.7939C71.107 36.0213 70.6318 36.2778 70.1731 36.5621C70.0376 36.4786 69.9258 36.3618 69.8483 36.2228C69.7708 36.0838 69.7302 35.9272 69.7305 35.7681C69.7318 35.5216 69.8305 35.2856 70.005 35.1116C70.1796 34.9376 70.4159 34.8396 70.6624 34.8391C70.9093 34.8394 71.1461 34.9373 71.3211 35.1115C71.4961 35.2858 71.595 35.5221 71.5963 35.7691ZM67.2016 29.031C66.3019 29.031 65.439 29.3884 64.8028 30.0246C64.1666 30.6608 63.8092 31.5237 63.8092 32.4234C63.8095 33.3229 64.167 34.1855 64.8032 34.8215C65.4393 35.4574 66.302 35.8147 67.2016 35.8147C67.647 35.8148 68.0881 35.7272 68.4997 35.5568C68.9113 35.3865 69.2852 35.1367 69.6003 34.8218C69.9153 34.5068 70.1652 34.1329 70.3357 33.7214C70.5062 33.3099 70.5939 32.8688 70.5939 32.4234C70.5939 31.5237 70.2365 30.6608 69.6003 30.0246C68.9641 29.3884 68.1013 29.031 67.2016 29.031ZM91.1356 50.8947C91.9087 50.8947 92.6501 50.5876 93.1968 50.0409C93.7434 49.4942 94.0505 48.7528 94.0505 47.9797C94.0509 47.5967 93.9758 47.2173 93.8295 46.8633C93.6832 46.5093 93.4685 46.1876 93.1978 45.9166C92.9271 45.6456 92.6056 45.4306 92.2518 45.284C91.8979 45.1373 91.5186 45.0618 91.1356 45.0618C90.9052 45.0619 90.6757 45.0892 90.4517 45.1432C90.6594 46.0945 90.7639 47.0655 90.7634 48.0393C90.7638 48.973 90.6673 49.9044 90.4756 50.8182C90.6919 50.869 90.9134 50.8946 91.1356 50.8947ZM64.9129 42.6133C64.7803 42.7613 64.7019 42.9499 64.6906 43.1483C64.7607 42.9683 64.8348 42.79 64.9129 42.6133ZM93.0997 43.2951C92.7975 43.2951 92.5077 43.4152 92.294 43.6289C92.0804 43.8425 91.9603 44.1323 91.9603 44.4345C91.9603 44.5841 91.9898 44.7322 92.0471 44.8704C92.1043 45.0086 92.1883 45.1341 92.2941 45.2398C92.3999 45.3456 92.5255 45.4294 92.6638 45.4865C92.802 45.5437 92.9501 45.573 93.0997 45.5729C93.2492 45.573 93.3973 45.5437 93.5355 45.4865C93.6737 45.4294 93.7992 45.3455 93.905 45.2398C94.0107 45.134 94.0945 45.0085 94.1517 44.8703C94.2089 44.7321 94.2382 44.5841 94.2381 44.4345C94.2382 44.2849 94.2089 44.1368 94.1517 43.9986C94.0946 43.8603 94.0107 43.7347 93.905 43.6289C93.7993 43.5231 93.6738 43.4392 93.5356 43.3819C93.3974 43.3246 93.2493 43.2951 93.0997 43.2951ZM97.0082 40.1817C97.0079 39.379 96.6888 38.6093 96.1212 38.0418C95.5535 37.4744 94.7837 37.1556 93.981 37.1556C93.1784 37.1556 92.4086 37.4744 91.8409 38.0418C91.2732 38.6093 90.9542 39.379 90.9539 40.1817C90.9539 40.9845 91.2729 41.7545 91.8406 42.3222C92.4082 42.8899 93.1782 43.2088 93.981 43.2088C94.3787 43.2089 94.7724 43.1307 95.1398 42.9787C95.5071 42.8266 95.841 42.6036 96.1222 42.3225C96.4034 42.0414 96.6264 41.7077 96.7786 41.3403C96.9308 40.973 97.0091 40.5793 97.0091 40.1817H97.0082ZM61.4064 40.2383C60.6791 40.2377 59.9813 40.5259 59.4664 41.0396C58.9515 41.5532 58.6615 42.2502 58.6602 42.9775C58.6609 43.3352 58.7317 43.6892 58.8686 44.0197C58.8755 44.0355 58.8815 44.0524 58.8885 44.0683C59.1007 44.5602 59.4523 44.9792 59.9 45.2736C60.3476 45.568 60.8716 45.7248 61.4074 45.7248C61.7679 45.7246 62.1248 45.6535 62.4578 45.5153C62.7908 45.3771 63.0933 45.1747 63.3479 44.9195C63.6026 44.6644 63.8045 44.3616 63.9421 44.0283C64.0796 43.6951 64.1502 43.338 64.1497 42.9775C64.1486 42.2508 63.8593 41.5543 63.3451 41.0407C62.831 40.5271 62.1341 40.2385 61.4074 40.2383H61.4064ZM83.7742 36.2157C84.2971 36.5036 84.8001 36.8263 85.2799 37.1814C85.4391 37.093 85.5716 36.9635 85.6636 36.8063C85.7556 36.6492 85.8037 36.4702 85.8029 36.2881C85.8029 36.0186 85.6958 35.7601 85.5052 35.5695C85.3146 35.3789 85.0561 35.2718 84.7866 35.2718C84.5299 35.2722 84.2829 35.3697 84.0953 35.5449C83.9077 35.72 83.7933 35.9597 83.7752 36.2157H83.7742ZM86.0411 31.2741C85.9756 31.2741 85.9111 31.2741 85.8476 31.284H85.8376C85.3656 31.3344 84.9289 31.5577 84.6115 31.9108C84.2942 32.2638 84.1186 32.7218 84.1186 33.1965C84.1186 33.7064 84.3212 34.1954 84.6817 34.5559C85.0422 34.9164 85.5312 35.119 86.0411 35.119C86.551 35.119 87.0399 34.9164 87.4005 34.5559C87.761 34.1954 87.9636 33.7064 87.9636 33.1965C87.9633 32.6869 87.7608 32.1982 87.4005 31.8378C87.0403 31.4773 86.5517 31.2746 86.0421 31.2741H86.0411ZM81.8984 33.2035C81.4409 33.203 80.9982 33.3657 80.65 33.6624C80.3018 33.9592 80.0709 34.3704 79.9988 34.8222C81.2375 35.0773 82.4338 35.5067 83.5519 36.0976C83.7259 35.8033 83.8177 35.4678 83.8179 35.1259C83.8179 34.6167 83.6159 34.1284 83.2562 33.7679C82.8966 33.4075 82.4086 33.2045 81.8994 33.2035H81.8984ZM63.5522 45.9957C63.5518 46.2615 63.6554 46.517 63.841 46.7073C63.8942 46.1636 63.9807 45.6237 64.1 45.0906C63.9349 45.1772 63.7966 45.3073 63.7 45.4668C63.6035 45.6264 63.5524 45.8092 63.5522 45.9957ZM76.3494 62.0642C76.3495 61.8676 76.3082 61.6732 76.2283 61.4935C75.4448 61.4339 74.668 61.3057 73.9069 61.1104C73.6665 61.3699 73.5329 61.7105 73.5327 62.0642C73.5327 62.437 73.6805 62.7946 73.9438 63.0586C74.207 63.3226 74.5642 63.4715 74.9371 63.4725C75.1224 63.4731 75.3059 63.437 75.4772 63.3665C75.6486 63.2959 75.8043 63.1923 75.9355 63.0614C76.0667 62.9306 76.1708 62.7752 76.2418 62.6041C76.3128 62.4329 76.3494 62.2495 76.3494 62.0642ZM57.3441 59.4529C57.3441 59.9628 57.5467 60.4518 57.9072 60.8123C58.2677 61.1729 58.7567 61.3754 59.2666 61.3754C59.7765 61.3754 60.2654 61.1729 60.626 60.8123C60.9865 60.4518 61.1891 59.9628 61.1891 59.4529C61.1891 58.9431 60.9865 58.4541 60.626 58.0936C60.2654 57.733 59.7765 57.5305 59.2666 57.5305C58.7567 57.5305 58.2677 57.733 57.9072 58.0936C57.5467 58.4541 57.3441 58.9431 57.3441 59.4529ZM81.6602 62.0662C81.6602 61.8393 81.5701 61.6217 81.4096 61.4612C81.2492 61.3008 81.0316 61.2106 80.8047 61.2106C80.5778 61.2106 80.3602 61.3008 80.1997 61.4612C80.0393 61.6217 79.9492 61.8393 79.9492 62.0662C79.9492 62.2931 80.0393 62.5107 80.1997 62.6711C80.3602 62.8316 80.5778 62.9217 80.8047 62.9217C81.0313 62.9207 81.2481 62.8298 81.4078 62.669C81.5674 62.5083 81.6568 62.2907 81.6563 62.0642L81.6602 62.0662ZM81.4429 65.5965C81.5086 65.7508 81.6183 65.8823 81.7582 65.9748C81.8982 66.0673 82.0622 66.1166 82.2299 66.1165C82.4568 66.1165 82.6744 66.0264 82.8349 65.866C82.9953 65.7055 83.0854 65.4879 83.0854 65.261C83.0854 65.1487 83.0633 65.0375 83.0203 64.9338C82.9773 64.83 82.9143 64.7358 82.8348 64.6564C82.7554 64.577 82.661 64.5141 82.5572 64.4712C82.4534 64.4284 82.3422 64.4063 82.2299 64.4065C82.1176 64.4063 82.0064 64.4284 81.9026 64.4712C81.7988 64.5141 81.7045 64.577 81.625 64.6564C81.5456 64.7358 81.4825 64.83 81.4395 64.9338C81.3965 65.0375 81.3744 65.1487 81.3744 65.261C81.3744 65.3731 81.3967 65.4841 81.4399 65.5875L81.4429 65.5965ZM85.387 65.521C85.7697 65.521 86.1485 65.4457 86.502 65.2992C86.8555 65.1528 87.1767 64.9381 87.4472 64.6675C87.7177 64.3969 87.9322 64.0757 88.0786 63.7221C88.2249 63.3686 88.3001 62.9897 88.3 62.6071C88.3 62.2245 88.2247 61.8458 88.0783 61.4923C87.9319 61.1389 87.7173 60.8178 87.4468 60.5473C87.1763 60.2768 86.8552 60.0622 86.5018 59.9159C86.1484 59.7695 85.7696 59.6941 85.387 59.6941C85.0045 59.6941 84.6257 59.7695 84.2723 59.9159C83.9189 60.0622 83.5978 60.2768 83.3273 60.5473C83.0568 60.8178 82.8422 61.1389 82.6958 61.4923C82.5494 61.8458 82.4741 62.2245 82.4741 62.6071C82.4743 63.3788 82.7808 64.1189 83.3262 64.6648C83.8716 65.2108 84.6114 65.518 85.3831 65.5191L85.387 65.521ZM77.988 68.697C78.3959 68.6966 78.7997 68.6159 79.1764 68.4594C79.5531 68.3029 79.8953 68.0737 80.1834 67.785C80.4715 67.4962 80.6999 67.1535 80.8556 66.7765C81.0112 66.3995 81.0911 65.9954 81.0905 65.5875C81.0909 65.2218 81.0264 64.8589 80.9 64.5157V64.5067C80.6792 63.9124 80.2819 63.3999 79.7613 63.038C79.2408 62.676 78.622 62.482 77.988 62.482C77.1644 62.482 76.3745 62.8092 75.7921 63.3916C75.2097 63.974 74.8825 64.7639 74.8825 65.5875C74.8825 66.4105 75.2091 67.1998 75.7907 67.7821C76.3722 68.3644 77.1611 68.692 77.984 68.6931L77.988 68.697ZM68.4114 58.8108C68.5979 58.8112 68.7801 58.7555 68.9345 58.651C68.4605 58.2769 68.0122 57.8714 67.5926 57.4372C67.52 57.5724 67.4822 57.7234 67.4825 57.8769C67.4825 58.1237 67.5802 58.3605 67.7542 58.5355C67.9283 58.7105 68.1646 58.8095 68.4114 58.8108ZM61.7667 54.6562C61.7667 54.3325 61.6381 54.0219 61.4091 53.793C61.1802 53.5641 60.8697 53.4354 60.5459 53.4354C60.2221 53.4354 59.9116 53.5641 59.6827 53.793C59.4538 54.0219 59.3251 54.3325 59.3251 54.6562C59.3248 54.8168 59.356 54.9758 59.4172 55.1243C59.4784 55.2728 59.5683 55.4077 59.6816 55.5214C59.795 55.635 59.9298 55.7252 60.0781 55.7868C60.2264 55.8483 60.3854 55.88 60.5459 55.88C60.7065 55.88 60.8655 55.8483 61.0138 55.7868C61.1621 55.7252 61.2968 55.635 61.4102 55.5214C61.5236 55.4077 61.6134 55.2728 61.6746 55.1243C61.7358 54.9758 61.7671 54.8168 61.7667 54.6562ZM73.0513 67.9209C73.2136 67.921 73.3742 67.8892 73.5241 67.8272C73.674 67.7652 73.8103 67.6743 73.925 67.5596C74.0398 67.445 74.1308 67.3088 74.1929 67.1589C74.255 67.0091 74.287 66.8485 74.287 66.6862C74.287 66.524 74.255 66.3634 74.1929 66.2135C74.1308 66.0637 74.0398 65.9275 73.925 65.8128C73.8103 65.6982 73.674 65.6073 73.5241 65.5453C73.3742 65.4833 73.2136 65.4514 73.0513 65.4516C72.7239 65.4516 72.4098 65.5816 72.1783 65.8132C71.9468 66.0447 71.8167 66.3588 71.8167 66.6862C71.8167 67.0137 71.9468 67.3277 72.1783 67.5593C72.4098 67.7908 72.7239 67.9209 73.0513 67.9209ZM68.2516 61.0062C68.4885 61.0062 68.7157 60.9121 68.8833 60.7446C69.0508 60.577 69.1449 60.3498 69.1449 60.1129C69.1449 59.876 69.0508 59.6488 68.8833 59.4813C68.7157 59.3138 68.4885 59.2197 68.2516 59.2197C68.0147 59.2197 67.7875 59.3138 67.62 59.4813C67.4525 59.6488 67.3584 59.876 67.3584 60.1129C67.3584 60.3498 67.4525 60.577 67.62 60.7446C67.7875 60.9121 68.0147 61.0062 68.2516 61.0062ZM68.9464 65.6878L68.9821 65.7057C69.4234 65.9725 69.9294 66.1133 70.445 66.1126C70.8171 66.1126 71.1855 66.0393 71.5293 65.8969C71.873 65.7544 72.1853 65.5457 72.4483 65.2826C72.7114 65.0194 72.92 64.7071 73.0623 64.3633C73.2046 64.0195 73.2778 63.6511 73.2776 63.279C73.2778 62.9066 73.2045 62.5378 73.0619 62.1938C72.9194 61.8498 72.7104 61.5372 72.4469 61.274C72.1835 61.0108 71.8707 60.8022 71.5265 60.66C71.1823 60.5178 70.8135 60.4449 70.4411 60.4454C69.6898 60.4454 68.9694 60.7439 68.4381 61.2751C67.9069 61.8063 67.6085 62.5268 67.6085 63.278C67.6081 63.7607 67.7311 64.2354 67.9657 64.6572C68.2004 65.0789 68.539 65.4337 68.9494 65.6878H68.9464ZM85.6004 58.6589C85.7985 58.7781 86.0253 58.8409 86.2565 58.8406C86.4254 58.841 86.5928 58.808 86.749 58.7434C86.9052 58.6789 87.0471 58.5842 87.1665 58.4646C87.286 58.3451 87.3806 58.2032 87.445 58.0469C87.5094 57.8907 87.5423 57.7233 87.5417 57.5543C87.5421 57.3468 87.4916 57.1424 87.3949 56.9588C86.8499 57.5791 86.2492 58.1482 85.6004 58.6589ZM57.7252 41.2724C57.7252 41.138 57.6987 41.0048 57.6473 40.8806C57.5958 40.7564 57.5203 40.6436 57.4252 40.5485C57.3301 40.4535 57.2171 40.3782 57.0929 40.3268C56.9686 40.2754 56.8355 40.2491 56.701 40.2492C56.4305 40.2505 56.1715 40.3589 55.9806 40.5506C55.7898 40.7424 55.6827 41.0019 55.6827 41.2724C55.6827 41.5439 55.7905 41.8043 55.9823 41.9963C56.1742 42.1884 56.4345 42.2964 56.706 42.2967C56.9767 42.2954 57.236 42.1869 57.427 41.9949C57.618 41.803 57.7253 41.5432 57.7252 41.2724ZM57.8533 52.0817L57.8821 52.0996C58.2492 52.3222 58.6705 52.4396 59.0999 52.439C59.725 52.439 60.3246 52.1906 60.7666 51.7486C61.2087 51.3065 61.457 50.707 61.457 50.0818C61.457 49.4567 61.2087 48.8571 60.7666 48.415C60.3246 47.973 59.725 47.7246 59.0999 47.7246C58.4749 47.7249 57.8756 47.9734 57.4337 48.4154C56.9919 48.8574 56.7437 49.4568 56.7437 50.0818C56.7435 50.482 56.8453 50.8756 57.0394 51.2255C57.2336 51.5754 57.5137 51.8701 57.8533 52.0817ZM53.0179 49.79C53.0179 50.0087 53.0609 50.2253 53.1446 50.4273C53.2283 50.6294 53.351 50.813 53.5056 50.9676C53.6603 51.1223 53.8439 51.245 54.0459 51.3287C54.248 51.4123 54.4646 51.4554 54.6833 51.4554C55.1249 51.4554 55.5486 51.28 55.8609 50.9676C56.1732 50.6553 56.3487 50.2317 56.3487 49.79C56.3484 49.3485 56.1728 48.9252 55.8605 48.613C55.5482 48.3009 55.1248 48.1256 54.6833 48.1256C54.4646 48.1255 54.2481 48.1684 54.046 48.252C53.844 48.3356 53.6604 48.4582 53.5057 48.6128C53.351 48.7673 53.2283 48.9508 53.1446 49.1528C53.0609 49.3548 53.0179 49.5714 53.0179 49.79ZM77.1702 31.6056C77.1698 31.4977 77.1489 31.391 77.1087 31.2909L77.0997 31.2671C77.0335 31.1139 76.9239 30.9834 76.7844 30.8917C76.6449 30.8 76.4816 30.7511 76.3147 30.751C76.2024 30.7509 76.0911 30.7729 75.9873 30.8158C75.8835 30.8587 75.7892 30.9216 75.7098 31.0009C75.6303 31.0803 75.5673 31.1746 75.5243 31.2783C75.4813 31.382 75.4591 31.4932 75.4591 31.6056C75.4591 31.8325 75.5493 32.0501 75.7097 32.2105C75.8701 32.3709 76.0878 32.4611 76.3147 32.4611C76.427 32.4611 76.5383 32.439 76.6421 32.396C76.7458 32.353 76.8402 32.2899 76.9196 32.2105C76.9991 32.1311 77.0621 32.0367 77.1051 31.933C77.1481 31.8292 77.1702 31.7179 77.1702 31.6056ZM77.5414 34.5493C77.3798 33.9303 77.0175 33.3823 76.5112 32.9911C76.005 32.6 75.3833 32.3878 74.7435 32.3876C73.9769 32.3876 73.2417 32.6921 72.6995 33.2341C72.1574 33.7761 71.8527 34.5112 71.8524 35.2778C71.8528 35.4076 71.8617 35.5372 71.8792 35.6658C73.5793 34.9236 75.4144 34.5407 77.2694 34.5413C77.3607 34.5413 77.4511 34.5473 77.5414 34.5493ZM69.924 36.7189C69.5639 36.5864 69.1831 36.5192 68.7995 36.5204C68.1374 36.5205 67.4911 36.7232 66.9475 37.1013C66.4039 37.4793 65.989 38.0147 65.7585 38.6354C65.7525 38.6552 65.7456 38.6751 65.7376 38.6949C65.6181 39.0383 65.5571 39.3993 65.557 39.7629C65.5571 40.1706 65.6342 40.5747 65.7843 40.9538C66.8359 39.2549 68.2494 37.8089 69.924 36.7189ZM101.882 47.4011C101.871 46.9803 101.851 46.5604 101.819 46.1446C101.665 46.3047 101.578 46.518 101.578 46.7401C101.577 46.8656 101.603 46.9898 101.655 47.104C101.707 47.2182 101.784 47.3196 101.879 47.4011H101.882ZM96.1764 43.4033C96.1753 44.0295 96.3616 44.6417 96.7114 45.161C96.6331 45.0458 96.5277 44.9514 96.4045 44.8862C96.2814 44.821 96.1441 44.7869 96.0047 44.7869C95.7778 44.7869 95.5602 44.877 95.3998 45.0374C95.2393 45.1979 95.1492 45.4155 95.1492 45.6424C95.1492 45.8693 95.2393 46.0869 95.3998 46.2473C95.5602 46.4078 95.7778 46.4979 96.0047 46.4979C96.117 46.4979 96.2282 46.4758 96.332 46.4328C96.4357 46.3898 96.53 46.3267 96.6093 46.2473C96.6887 46.1678 96.7516 46.0735 96.7945 45.9697C96.8374 45.8659 96.8594 45.7547 96.8593 45.6424C96.8593 45.4747 96.8099 45.3107 96.7174 45.171C97.0063 45.5991 97.3959 45.9498 97.8521 46.1921C98.3083 46.4343 98.817 46.5608 99.3336 46.5604C99.7944 46.561 100.25 46.4604 100.667 46.2655C101.085 46.0707 101.455 45.7865 101.75 45.433C101.577 43.7839 101.237 42.1568 100.734 40.5767C100.299 40.3607 99.8194 40.2486 99.3336 40.2492C98.4967 40.2489 97.6939 40.581 97.1019 41.1725C96.5099 41.764 96.177 42.5664 96.1764 43.4033ZM57.2905 44.7928C57.2907 44.5178 57.237 44.2454 57.1327 43.9909L57.1178 43.9542C56.9755 43.6251 56.7521 43.3374 56.4685 43.118C56.185 42.8987 55.8504 42.7547 55.4961 42.6996H55.4713C55.3727 42.6854 55.2732 42.6781 55.1735 42.6778C54.6117 42.6778 54.0729 42.9009 53.6756 43.2981C53.2782 43.6953 53.0548 44.234 53.0546 44.7958C53.0546 45.3578 53.2778 45.8967 53.6752 46.2941C54.0726 46.6915 54.6116 46.9148 55.1735 46.9148C55.4519 46.9148 55.7274 46.8599 55.9845 46.7534C56.2416 46.6468 56.4752 46.4906 56.6719 46.2937C56.8686 46.0968 57.0246 45.8631 57.1309 45.6059C57.2372 45.3487 57.2918 45.0731 57.2915 44.7948L57.2905 44.7928ZM65.1809 60.7362C65.1809 60.9631 65.271 61.1807 65.4314 61.3412C65.5109 61.4206 65.6052 61.4836 65.709 61.5266C65.8128 61.5696 65.924 61.5918 66.0364 61.5918C66.2633 61.5918 66.4809 61.5016 66.6413 61.3412C66.8018 61.1807 66.8919 60.9631 66.8919 60.7362C66.8919 60.6239 66.8698 60.5127 66.8268 60.409C66.7838 60.3052 66.7207 60.211 66.6413 60.1316C66.5618 60.0523 66.4675 59.9893 66.3637 59.9465C66.2599 59.9036 66.1487 59.8816 66.0364 59.8817C65.9241 59.8816 65.8129 59.9036 65.7091 59.9465C65.6053 59.9893 65.511 60.0523 65.4315 60.1316C65.352 60.211 65.289 60.3052 65.246 60.409C65.203 60.5127 65.1809 60.6239 65.1809 60.7362ZM64.1675 54.2304C63.3836 54.2304 62.6319 54.5418 62.0776 55.0961C61.5233 55.6504 61.2119 56.4022 61.2119 57.1861C61.2111 57.5747 61.287 57.9597 61.4352 58.319C61.5833 58.6783 61.8009 59.0048 62.0755 59.2799C62.35 59.555 62.6761 59.7732 63.0351 59.9221C63.3941 60.071 63.7789 60.1477 64.1675 60.1477C64.5557 60.1477 64.9402 60.0712 65.2988 59.9226C65.6575 59.774 65.9834 59.5562 66.2578 59.2816C66.5323 59.0071 66.75 58.6811 66.8985 58.3224C67.0469 57.9637 67.1233 57.5793 67.1232 57.191C67.1232 57.1017 67.1182 57.0124 67.1103 56.9251C66.4621 56.1861 65.8963 55.3788 65.423 54.5173C65.0309 54.33 64.6021 54.232 64.1675 54.2304ZM90.0835 32.1971C90.0839 32.1935 90.0839 32.1898 90.0835 32.1862C90.1112 32.1012 90.1252 32.0125 90.1252 31.9232C90.1252 31.6964 90.0352 31.479 89.875 31.3185C89.7147 31.1581 89.4974 31.0679 89.2707 31.0676C89.0438 31.0676 88.8262 31.1578 88.6657 31.3182C88.5053 31.4786 88.4151 31.6962 88.4151 31.9232C88.4151 32.1501 88.5053 32.3677 88.6657 32.5281C88.8262 32.6885 89.0438 32.7787 89.2707 32.7787C89.4502 32.7793 89.6253 32.7233 89.7712 32.6187C89.9171 32.5141 90.0264 32.3663 90.0835 32.1961V32.1971ZM70.1344 60.232C70.2667 60.232 70.3971 60.2012 70.5154 60.1422C70.6338 60.0831 70.7367 59.9973 70.8162 59.8916C70.3173 59.619 69.836 59.3154 69.3751 58.9825C69.3102 59.1048 69.2762 59.2411 69.2759 59.3795C69.2769 59.6057 69.3675 59.8223 69.5279 59.9819C69.6882 60.1415 69.9052 60.2311 70.1314 60.2311L70.1344 60.232ZM89.8414 43.1294C90.0217 43.5894 90.1758 44.0593 90.3029 44.5368C90.4423 44.3809 90.5193 44.1791 90.5192 43.97C90.5201 43.7733 90.4531 43.5824 90.3297 43.4292C90.2062 43.2761 90.0338 43.1702 89.8414 43.1294ZM89.7997 40.4834C89.5837 40.4836 89.3757 40.5656 89.2177 40.7129C89.0597 40.8603 88.9634 41.0619 88.9481 41.2774C89.101 41.5421 89.2452 41.8117 89.3808 42.0863C89.5086 42.1584 89.6529 42.1964 89.7997 42.1965C89.912 42.1965 90.0233 42.1743 90.1271 42.1313C90.2309 42.0883 90.3252 42.0253 90.4046 41.9459C90.4841 41.8664 90.5471 41.7721 90.5901 41.6683C90.6331 41.5645 90.6552 41.4533 90.6552 41.3409C90.6555 41.2284 90.6335 41.1169 90.5906 41.0129C90.5478 40.9089 90.4848 40.8143 90.4053 40.7347C90.3259 40.655 90.2315 40.5918 90.1275 40.5487C90.0236 40.5056 89.9122 40.4834 89.7997 40.4834ZM79.7894 61.297C78.9588 61.4558 78.1151 61.5362 77.2694 61.5372C77.1503 61.5372 77.0322 61.5372 76.9141 61.5372C77.2976 61.6935 77.7079 61.7737 78.122 61.7734C78.7111 61.7719 79.2883 61.607 79.7894 61.297ZM73.097 60.9417C73.1503 60.9417 73.2034 60.9368 73.2558 60.9268C72.9779 60.8424 72.704 60.7432 72.434 60.6439C72.5168 60.738 72.6189 60.8133 72.7332 60.8647C72.8476 60.916 72.9716 60.9423 73.097 60.9417ZM85.8158 37.3501C85.8158 37.4365 85.8158 37.5228 85.8287 37.6082C86.755 38.3687 87.5764 39.2488 88.2712 40.2254C88.4223 40.2489 88.5749 40.2608 88.7278 40.2611C89.4998 40.2611 90.2402 39.9544 90.7862 39.4085C91.3321 38.8626 91.6388 38.1221 91.6388 37.3501C91.638 36.5794 91.3316 35.8405 90.7869 35.2954C90.2421 34.7503 89.5034 34.4434 88.7327 34.4421C88.3503 34.4414 87.9715 34.5161 87.618 34.6619C87.2644 34.8076 86.9431 35.0215 86.6722 35.2915C86.4013 35.5614 86.1863 35.8821 86.0394 36.2351C85.8924 36.5882 85.8164 36.9667 85.8158 37.3491V37.3501ZM83.4725 60.0236C83.2611 60.1338 83.0457 60.239 82.8274 60.3372C82.9513 60.335 83.0732 60.3058 83.1846 60.2517C83.296 60.1975 83.3943 60.1197 83.4725 60.0236ZM89.1992 64.1921C89.453 64.1921 89.6963 64.0913 89.8757 63.9119C90.0552 63.7324 90.156 63.4891 90.156 63.2353C90.1557 62.9817 90.0548 62.7385 89.8755 62.5591C89.6961 62.3797 89.4529 62.2788 89.1992 62.2786C88.9454 62.2786 88.7019 62.3793 88.5223 62.5587C88.3427 62.7381 88.2417 62.9815 88.2415 63.2353C88.2415 63.3613 88.2663 63.486 88.3147 63.6024C88.363 63.7187 88.4338 63.8244 88.5231 63.9133C88.6124 64.0022 88.7183 64.0726 88.8348 64.1204C88.9514 64.1683 89.0762 64.1926 89.2022 64.1921H89.1992ZM61.068 52.2306C61.068 52.4727 61.1642 52.705 61.3354 52.8762C61.5066 53.0475 61.7389 53.1437 61.9811 53.1437C62.2232 53.1437 62.4555 53.0475 62.6267 52.8762C62.798 52.705 62.8942 52.4727 62.8942 52.2306C62.8942 51.9884 62.798 51.7561 62.6267 51.5849C62.4555 51.4137 62.2232 51.3175 61.9811 51.3175C61.7389 51.3175 61.5066 51.4137 61.3354 51.5849C61.1642 51.7561 61.068 51.9884 61.068 52.2306ZM63.4063 47.94C63.4063 47.6141 63.2768 47.3016 63.0464 47.0712C62.816 46.8408 62.5034 46.7113 62.1776 46.7113C62.0162 46.7113 61.8564 46.7431 61.7074 46.8048C61.5583 46.8666 61.4228 46.9571 61.3087 47.0712C61.0783 47.3016 60.9489 47.6141 60.9489 47.94C60.9487 48.1015 60.9804 48.2614 61.0421 48.4107C61.1038 48.5599 61.1942 48.6956 61.3083 48.8098C61.4224 48.9241 61.5579 49.0148 61.7071 49.0767C61.8562 49.1386 62.0161 49.1706 62.1776 49.1707C62.3391 49.1706 62.4989 49.1386 62.6481 49.0767C62.7972 49.0148 62.9327 48.9241 63.0468 48.8098C63.1609 48.6956 63.2514 48.5599 63.3131 48.4107C63.3747 48.2614 63.4064 48.1015 63.4063 47.94ZM64.9546 53.5615C64.2935 52.0885 63.9034 50.5083 63.8033 48.8968C63.3218 49.4291 63.0554 50.1213 63.0559 50.8391C63.0556 51.4328 63.2375 52.0123 63.577 52.4993C63.9165 52.9864 64.3974 53.3575 64.9546 53.5625V53.5615ZM78.651 34.6148C78.8554 34.636 79.0582 34.6614 79.2594 34.6912C79.1338 34.6257 78.9941 34.5916 78.8525 34.592C78.7859 34.5925 78.7197 34.6005 78.655 34.6158L78.651 34.6148ZM58.69 62.6617C58.3713 62.6615 58.0622 62.7708 57.8146 62.9713C58.3798 63.7083 58.9862 64.4128 59.6308 65.0814C59.7736 64.9512 59.8877 64.7928 59.9658 64.6161C60.0439 64.4394 60.0843 64.2483 60.0844 64.0551C60.0849 63.8719 60.0492 63.6904 59.9793 63.521C59.9094 63.3517 59.8067 63.1978 59.6771 63.0683C59.5475 62.9388 59.3935 62.8362 59.2241 62.7664C59.0547 62.6966 58.8732 62.661 58.69 62.6617ZM55.6073 59.0152C55.5216 59.0153 55.4364 59.0257 55.3532 59.046C55.6628 59.6633 55.9973 60.2648 56.3566 60.8504C56.4586 60.751 56.5397 60.6321 56.5949 60.5009C56.6501 60.3696 56.6784 60.2286 56.6782 60.0862C56.6782 59.8021 56.5653 59.5297 56.3645 59.3289C56.1637 59.1281 55.8913 59.0152 55.6073 59.0152ZM56.6583 61.3307C56.9084 61.7178 57.1691 62.0973 57.4404 62.4691C57.4591 62.3951 57.4688 62.3192 57.4692 62.2428C57.4693 62.0179 57.3867 61.8007 57.2373 61.6325C57.0878 61.4644 56.8818 61.357 56.6583 61.3307ZM60.8903 65.665C60.7049 65.6654 60.5233 65.7169 60.3653 65.8138C60.8284 66.2565 61.3105 66.6806 61.8113 67.0862C61.8696 66.9567 61.8997 66.8163 61.8997 66.6743C61.8997 66.5418 61.8736 66.4105 61.8228 66.2881C61.7721 66.1656 61.6978 66.0543 61.604 65.9606C61.5103 65.8669 61.399 65.7925 61.2766 65.7418C61.1541 65.6911 61.0229 65.665 60.8903 65.665ZM63.1353 66.2019C63.9069 66.2019 64.647 65.8954 65.1927 65.3499C65.7384 64.8044 66.0451 64.0645 66.0453 63.2929C66.0453 62.9108 65.9701 62.5323 65.8238 62.1793C65.6776 61.8262 65.4632 61.5054 65.193 61.2352C64.9228 60.965 64.602 60.7507 64.2489 60.6044C63.8959 60.4582 63.5175 60.3829 63.1353 60.3829C62.3636 60.3829 61.6234 60.6895 61.0777 61.2352C60.5319 61.781 60.2253 62.5211 60.2253 63.2929C60.2256 64.0645 60.5323 64.8044 61.078 65.3499C61.6237 65.8954 62.3637 66.2019 63.1353 66.2019ZM53.797 52.4737C53.7971 52.3614 53.7751 52.2502 53.7322 52.1464C53.6893 52.0426 53.6264 51.9483 53.547 51.8688C53.4677 51.7894 53.3734 51.7263 53.2697 51.6833C53.1659 51.6403 53.0547 51.6182 52.9424 51.6182C53.0278 52.1753 53.1323 52.7258 53.256 53.2697C53.4157 53.2067 53.5527 53.0971 53.6492 52.9551C53.7457 52.8131 53.7972 52.6454 53.797 52.4737ZM54.7418 24.8288C55.0133 24.8285 55.2736 24.7205 55.4654 24.5285C55.6573 24.3364 55.7651 24.076 55.7651 23.8046C55.7648 23.5332 55.6569 23.2731 55.4651 23.0813C55.2732 22.8894 55.0131 22.7816 54.7418 22.7813C54.4703 22.7813 54.21 22.8891 54.0179 23.0809C53.8259 23.2728 53.7178 23.5331 53.7176 23.8046C53.7176 23.9391 53.7441 24.0724 53.7956 24.1967C53.8472 24.3211 53.9227 24.434 54.0179 24.5292C54.1131 24.6243 54.2262 24.6997 54.3505 24.7511C54.4749 24.8025 54.6082 24.8289 54.7428 24.8288H54.7418ZM53.8962 31.3654C53.6247 31.3656 53.3645 31.4737 53.1726 31.6657C52.9807 31.8578 52.8729 32.1181 52.8729 32.3896C52.8737 32.6606 52.9819 32.9202 53.1736 33.1116C53.3654 33.303 53.6252 33.4106 53.8962 33.4109C54.1675 33.4106 54.4276 33.3027 54.6195 33.1109C54.8113 32.9191 54.9192 32.6589 54.9195 32.3876C54.9189 32.1165 54.8109 31.8566 54.6191 31.665C54.4273 31.4734 54.1673 31.3656 53.8962 31.3654ZM63.0272 66.4996C62.7941 66.4982 62.5639 66.5513 62.355 66.6547C62.1462 66.7581 61.9644 66.9089 61.8242 67.0951C62.5989 67.7263 63.4112 68.3096 64.2568 68.8419C64.4302 68.5911 64.5226 68.2933 64.5218 67.9884C64.5213 67.592 64.3637 67.2121 64.0835 66.9317C63.8034 66.6514 63.4235 66.4935 63.0272 66.4927V66.4996ZM58.2751 55.1425C58.2752 54.7221 58.1679 54.3087 57.9635 53.9413C57.759 53.574 57.4642 53.2649 57.1069 53.0434L57.0831 53.0285C56.6981 52.7948 56.2562 52.6715 55.8058 52.6722C55.2751 52.6724 54.7585 52.8435 54.3326 53.16C53.9066 53.4766 53.5939 53.9218 53.4407 54.4299C53.6589 55.331 53.9378 56.2164 54.2753 57.0799C54.7108 57.425 55.2502 57.6125 55.8058 57.6119C56.4607 57.6119 57.0888 57.3517 57.5518 56.8886C58.0149 56.4255 58.2751 55.7974 58.2751 55.1425ZM53.4367 39.9385L53.4645 39.9564C53.8318 40.1797 54.2534 40.2979 54.6833 40.2978C55.3082 40.2975 55.9075 40.0491 56.3494 39.6071C56.7912 39.165 57.0394 38.5656 57.0394 37.9406C57.0396 37.6311 56.9787 37.3246 56.8604 37.0387C56.742 36.7527 56.5685 36.4928 56.3497 36.2739C56.1309 36.055 55.8711 35.8814 55.5852 35.7629C55.2992 35.6444 54.9928 35.5835 54.6833 35.5835C54.0581 35.5835 53.4585 35.8318 53.0165 36.2739C52.5744 36.7159 52.3261 37.3155 52.3261 37.9406C52.3264 38.3406 52.4285 38.7338 52.6228 39.0834C52.8171 39.4329 53.0972 39.7272 53.4367 39.9385ZM53.4675 29.1938C53.8102 29.1922 54.1384 29.055 54.3802 28.812C54.622 28.5691 54.7577 28.2403 54.7577 27.8976C54.7577 27.6429 54.6823 27.3938 54.541 27.1819C54.3997 26.97 54.1988 26.8046 53.9637 26.7066C53.8043 26.6402 53.6332 26.6064 53.4605 26.6074C53.1167 26.6074 52.787 26.7439 52.544 26.987C52.3009 27.2301 52.1643 27.5598 52.1643 27.9036C52.1651 28.0739 52.1994 28.2423 52.2653 28.3994C52.3313 28.5564 52.4275 28.6989 52.5485 28.8187C52.6695 28.9385 52.813 29.0333 52.9707 29.0977C53.1283 29.1621 53.2971 29.1947 53.4675 29.1938ZM94.8336 61.6136C94.5701 61.6136 94.3091 61.6656 94.0657 61.7665C93.8223 61.8674 93.6011 62.0154 93.4149 62.2019C93.2287 62.3883 93.0811 62.6097 92.9805 62.8533C92.8799 63.0969 92.8284 63.3579 92.8288 63.6214C92.829 64.0945 92.9965 64.5523 93.3016 64.9139C93.6067 65.2755 94.0298 65.5176 94.4962 65.5975C95.3074 64.8043 96.0628 63.956 96.757 63.0587C96.6359 62.6421 96.383 62.2761 96.0362 62.0156C95.6894 61.755 95.2674 61.614 94.8336 61.6136ZM97.3228 56.4675C96.5506 56.4678 95.8102 56.7747 95.2643 57.3208C94.7184 57.8668 94.4118 58.6074 94.4118 59.3795C94.4118 59.4738 94.4118 59.5671 94.4257 59.6594C94.3517 58.9477 94.0166 58.2887 93.4849 57.8099C92.9533 57.331 92.2629 57.0663 91.5474 57.067C90.7812 57.067 90.0463 57.3714 89.5045 57.9132C88.9627 58.455 88.6583 59.1899 88.6583 59.9561C88.6582 60.3356 88.7328 60.7114 88.8779 61.0621C89.0231 61.4127 89.2359 61.7313 89.5042 61.9997C89.7725 62.2681 90.091 62.481 90.4416 62.6263C90.7922 62.7715 91.168 62.8463 91.5474 62.8463C92.314 62.8463 93.0491 62.5418 93.5911 61.9998C94.1331 61.4578 94.4376 60.7226 94.4376 59.9561C94.4376 59.8618 94.4326 59.7695 94.4237 59.6782C94.4978 60.3947 94.8349 61.0583 95.3698 61.5408C95.9047 62.0233 96.5994 62.2904 97.3198 62.2905C98.3016 60.9142 99.139 59.4405 99.8189 57.8927C99.5619 57.4593 99.1967 57.1001 98.7592 56.8503C98.3216 56.6005 97.8266 56.4686 97.3228 56.4675ZM98.216 50.592C97.4327 50.592 96.6814 50.9031 96.1275 51.4571C95.5735 52.011 95.2624 52.7623 95.2624 53.5456C95.2624 54.329 95.5735 55.0802 96.1275 55.6342C96.6814 56.1881 97.4327 56.4993 98.216 56.4993C98.6039 56.4994 98.9881 56.4231 99.3465 56.2747C99.7049 56.1263 100.031 55.9088 100.305 55.6345C100.579 55.3602 100.797 55.0345 100.945 54.6761C101.093 54.3177 101.17 53.9335 101.17 53.5456C101.17 53.1576 101.093 52.7734 100.945 52.4149C100.797 52.0564 100.579 51.7307 100.305 51.4564C100.03 51.1821 99.7043 50.9646 99.3458 50.8162C98.9873 50.6679 98.603 50.5917 98.215 50.592H98.216ZM101.888 47.8715C101.682 47.7858 101.461 47.7416 101.238 47.7415C100.788 47.7415 100.357 47.9202 100.039 48.2383C99.7207 48.5564 99.542 48.9878 99.542 49.4377C99.5416 49.6607 99.5852 49.8816 99.6702 50.0877C99.7553 50.2938 99.8802 50.4812 100.038 50.639C100.195 50.7968 100.382 50.922 100.588 51.0074C100.794 51.0929 101.015 51.1368 101.238 51.1368C101.393 51.1363 101.548 51.1146 101.697 51.0723C101.821 50.0631 101.884 49.0472 101.884 48.0303C101.887 47.9767 101.885 47.9241 101.885 47.8715H101.888ZM90.5738 64.0968C89.8105 64.0968 89.0784 64.4001 88.5386 64.9398C87.9988 65.4796 87.6956 66.2117 87.6956 66.975C87.692 67.3563 87.7642 67.7345 87.908 68.0876C87.6472 67.4993 87.2212 66.9992 86.6818 66.6483C86.1423 66.2973 85.5125 66.1105 84.869 66.1106C84.4324 66.1105 84.0001 66.1963 83.5967 66.3633C83.1933 66.5303 82.8267 66.7751 82.518 67.0838C82.2092 67.3924 81.9643 67.7589 81.7972 68.1622C81.6301 68.5656 81.5441 68.9979 81.5441 69.4344C81.5436 69.9234 81.6512 70.4064 81.8592 70.8489C82.0671 71.2914 82.3703 71.6824 82.747 71.9941C84.6085 71.5743 86.4143 70.9374 88.1273 70.0964C88.1709 69.8785 88.1928 69.6567 88.1928 69.4344C88.1936 68.9954 88.1073 68.5605 87.9387 68.1551C88.2018 68.7425 88.6534 69.2252 89.222 69.5267C90.7219 68.6951 92.1306 67.7088 93.4252 66.584C93.3306 65.8938 92.9889 65.2614 92.4634 64.8041C91.938 64.3467 91.2645 64.0954 90.5679 64.0968H90.5738ZM77.1751 68.838C76.6571 68.838 76.1603 69.0437 75.794 69.41C75.4277 69.7763 75.2219 70.2732 75.2219 70.7912C75.2223 71.1703 75.333 71.5412 75.5406 71.8584C75.7483 72.1757 76.0438 72.4256 76.3911 72.5777C76.7017 72.5896 77.0124 72.5975 77.326 72.5975C77.5285 72.5975 77.7306 72.5949 77.9324 72.5896C78.2858 72.4397 78.5873 72.1889 78.7991 71.8688C79.0109 71.5486 79.1237 71.1731 79.1234 70.7892C79.1232 70.5326 79.0723 70.2786 78.9739 70.0417C78.8754 69.8047 78.7312 69.5895 78.5496 69.4083C78.3679 69.2271 78.1523 69.0835 77.9151 68.9856C77.6779 68.8877 77.4238 68.8376 77.1672 68.838H77.1751ZM76.0844 68.4846C76.0844 68.3555 76.059 68.2276 76.0095 68.1082C75.9601 67.9889 75.8876 67.8805 75.7963 67.7892C75.705 67.6978 75.5966 67.6254 75.4772 67.5759C75.3579 67.5265 75.23 67.5011 75.1008 67.5011C74.8399 67.5011 74.5896 67.6047 74.405 67.7891C74.2204 67.9735 74.1165 68.2237 74.1163 68.4846C74.1163 68.7458 74.22 68.9962 74.4047 69.1808C74.5893 69.3655 74.8397 69.4692 75.1008 69.4692C75.3618 69.4689 75.612 69.3651 75.7964 69.1805C75.9808 68.9959 76.0844 68.7456 76.0844 68.4846ZM74.0002 71.8204C73.8422 71.8199 73.6867 71.8597 73.5483 71.9359C73.4099 72.0121 73.2932 72.1223 73.2091 72.2561C73.7616 72.3494 74.3201 72.4242 74.8845 72.4804C74.826 72.2901 74.7081 72.1236 74.548 72.0052C74.388 71.8868 74.1943 71.8227 73.9952 71.8224L74.0002 71.8204ZM81.4855 69.6587C81.4854 69.49 81.452 69.3229 81.3871 69.1671C81.3222 69.0113 81.2272 68.8699 81.1075 68.7509C80.9878 68.6319 80.8457 68.5378 80.6895 68.4739C80.5333 68.41 80.3661 68.3775 80.1973 68.3784C80.0289 68.3783 79.8621 68.4114 79.7064 68.4758C79.5508 68.5402 79.4094 68.6346 79.2903 68.7537C79.1712 68.8728 79.0767 69.0142 79.0123 69.1699C78.9479 69.3255 78.9149 69.4923 78.915 69.6607C78.915 70.0008 79.0501 70.327 79.2906 70.5675C79.531 70.8079 79.8572 70.943 80.1973 70.943C80.3658 70.9432 80.5326 70.9101 80.6883 70.8457C80.844 70.7813 80.9855 70.6869 81.1047 70.5678C81.2238 70.4487 81.3184 70.3073 81.3829 70.1517C81.4474 69.996 81.4806 69.8292 81.4806 69.6607L81.4855 69.6587ZM80.8067 70.8696C80.4553 70.8696 80.1183 71.0092 79.8698 71.2577C79.6213 71.5062 79.4817 71.8432 79.4817 72.1946C79.4822 72.2969 79.4945 72.3988 79.5184 72.4983C80.3946 72.4211 81.2659 72.2969 82.1287 72.1261C82.1106 71.7867 81.9628 71.4672 81.7158 71.2337C81.4689 71.0002 81.1416 70.8706 80.8017 70.8716L80.8067 70.8696ZM73.9803 70.4319C73.9801 70.1561 73.9254 69.8831 73.8196 69.6284C73.7137 69.3738 73.5587 69.1425 73.3633 68.9478C73.168 68.7531 72.9362 68.5989 72.6812 68.4939C72.4262 68.3888 72.153 68.3351 71.8772 68.3358C71.4876 68.3358 71.1058 68.4444 70.7745 68.6493C70.4431 68.8543 70.1754 69.1474 70.0014 69.496C70.1845 69.1098 70.2791 68.6877 70.2783 68.2603C70.2786 67.7697 70.1535 67.287 69.9149 66.8583C69.6762 66.4296 69.3319 66.069 68.9146 65.8109L68.8839 65.792C68.4348 65.5205 67.9199 65.3773 67.3951 65.3781C66.6318 65.3781 65.8997 65.6814 65.3599 66.2211C64.8201 66.7609 64.5169 67.493 64.5169 68.2564C64.517 68.5315 64.5565 68.8052 64.634 69.0692C65.8473 69.804 67.1221 70.432 68.4442 70.946C69.1131 70.6839 69.6604 70.1822 69.9796 69.5387C69.8484 69.8181 69.7806 70.1232 69.7811 70.4319C69.7802 70.8125 69.8831 71.1862 70.0788 71.5127C71.0315 71.8063 72.0013 72.041 72.9829 72.2154C73.2862 72.0274 73.5366 71.7652 73.7102 71.4534C73.8839 71.1417 73.9752 70.7908 73.9753 70.4339L73.9803 70.4319ZM96.1844 50.9066C96.1836 50.567 96.0481 50.2416 95.8078 50.0018C95.5674 49.7619 95.2416 49.6273 94.9021 49.6273C94.7336 49.6271 94.5668 49.6602 94.4112 49.7246C94.2556 49.789 94.1142 49.8834 93.9951 50.0025C93.876 50.1216 93.7815 50.263 93.7171 50.4187C93.6527 50.5743 93.6196 50.7411 93.6198 50.9096C93.6198 51.2496 93.7549 51.5758 93.9954 51.8163C94.2358 52.0568 94.562 52.1919 94.9021 52.1919C95.0707 52.1917 95.2376 52.1584 95.3933 52.0937C95.549 52.029 95.6905 51.9343 95.8096 51.8149C95.9286 51.6956 96.023 51.5539 96.0874 51.3981C96.1517 51.2422 96.1846 51.0752 96.1844 50.9066ZM90.9242 32.0879C90.9242 32.0879 90.9242 32.0949 90.9242 32.0988C90.8002 32.4391 90.737 32.7986 90.7376 33.1608C90.7376 33.5685 90.8179 33.9722 90.9739 34.3488C91.1299 34.7255 91.3586 35.0677 91.6469 35.356C91.9352 35.6443 92.2774 35.873 92.654 36.029C93.0307 36.185 93.4344 36.2653 93.8421 36.2653C94.6495 36.2651 95.4251 35.9502 96.004 35.3874C96.5829 34.8245 96.9197 34.0582 96.9426 33.2511C96.0814 32.1096 95.1223 31.0452 94.0763 30.0702C93.9989 30.0642 93.9205 30.0602 93.8401 30.0602C93.2054 30.0598 92.5857 30.2539 92.0647 30.6165C91.5437 30.979 91.1463 31.4926 90.9261 32.0879H90.9242ZM98.5614 37.5635C98.8688 37.5637 99.169 37.4703 99.4219 37.2955C98.9802 36.389 98.483 35.5107 97.9332 34.6654C97.6674 34.7854 97.4418 34.9794 97.2833 35.2242C97.1249 35.4691 97.0404 35.7544 97.0399 36.046C97.0398 36.2458 97.0791 36.4437 97.1557 36.6282C97.2323 36.8128 97.3446 36.9804 97.4862 37.1214C97.6278 37.2624 97.7958 37.3741 97.9807 37.45C98.1655 37.5258 98.3636 37.5644 98.5634 37.5635H98.5614ZM82.7718 26.3404C83.2425 26.3404 83.6938 26.1534 84.0266 25.8206C84.3594 25.4878 84.5464 25.0364 84.5464 24.5658C84.5464 24.5579 84.5464 24.5499 84.5464 24.542C83.4472 24.2046 82.3255 23.9453 81.1898 23.7658C81.0636 24.0136 80.9979 24.2877 80.9982 24.5658C80.9982 25.0363 81.1851 25.4875 81.5176 25.8203C81.8502 26.153 82.3013 26.3401 82.7718 26.3404ZM91.1733 30.8185C91.6335 30.8181 92.0786 30.6543 92.4294 30.3564C92.7801 30.0586 93.0138 29.6459 93.0888 29.1918C92.1993 28.4467 91.2584 27.7651 90.2731 27.1522C89.9583 27.3164 89.6945 27.5637 89.5104 27.8673C89.3264 28.1709 89.229 28.5192 89.229 28.8742C89.229 29.1295 89.2793 29.3824 89.377 29.6183C89.4747 29.8542 89.6179 30.0685 89.7985 30.249C89.979 30.4296 90.1933 30.5728 90.4292 30.6705C90.6651 30.7682 90.9179 30.8185 91.1733 30.8185ZM83.1341 28.1775C83.1341 28.564 83.2102 28.9468 83.3582 29.3038C83.5061 29.6609 83.723 29.9854 83.9963 30.2587C84.2697 30.5319 84.5942 30.7487 84.9514 30.8965C85.3085 31.0443 85.6913 31.1204 86.0778 31.1202C86.1773 31.1202 86.2766 31.1153 86.3756 31.1053H86.3855C87.1085 31.0289 87.7776 30.6875 88.2639 30.1471C88.7503 29.6067 89.0194 28.9055 89.0196 28.1785C89.0199 27.7239 88.9148 27.2755 88.7127 26.8684C88.5105 26.4613 88.2167 26.1067 87.8544 25.8322C87.4461 25.6383 87.0319 25.4554 86.6118 25.2834C86.4353 25.251 86.2562 25.2348 86.0768 25.2347C85.2967 25.2353 84.5487 25.5455 83.9973 26.0973C83.4458 26.6492 83.1361 27.3974 83.1361 28.1775H83.1341ZM98.3192 40.3613C98.6822 40.3613 99.0303 40.2171 99.287 39.9605C99.5437 39.7038 99.6879 39.3557 99.6879 38.9927C99.688 38.8129 99.6527 38.6348 99.584 38.4686C99.5153 38.3025 99.4145 38.1515 99.2874 38.0243C99.1603 37.8971 99.0093 37.7962 98.8432 37.7273C98.6771 37.6585 98.4991 37.623 98.3192 37.623C97.9562 37.6233 97.608 37.7677 97.3514 38.0246C97.0947 38.2814 96.9506 38.6296 96.9506 38.9927C96.9507 39.1728 96.9864 39.3511 97.0555 39.5174C97.1246 39.6838 97.2259 39.8348 97.3535 39.9619C97.4811 40.0891 97.6325 40.1898 97.7991 40.2583C97.9656 40.3268 98.1441 40.3619 98.3242 40.3613H98.3192ZM93.9523 56.9489C94.0874 56.9501 94.2215 56.9245 94.3467 56.8736C94.472 56.8227 94.5859 56.7475 94.6819 56.6524C94.778 56.5573 94.8543 56.4441 94.9063 56.3194C94.9584 56.1946 94.9853 56.0608 94.9854 55.9256C94.9854 55.654 94.8775 55.3934 94.6855 55.2014C94.4934 55.0093 94.2328 54.9014 93.9612 54.9014C93.6897 54.9016 93.4294 55.0097 93.2376 55.2017C93.0457 55.3938 92.9379 55.6541 92.9379 55.9256C92.9382 56.1961 93.0454 56.4554 93.2362 56.6471C93.4269 56.8388 93.6858 56.9473 93.9562 56.9489H93.9523ZM91.6328 55.7926C92.1729 55.7926 92.691 55.5781 93.0729 55.1961C93.4548 54.8142 93.6694 54.2962 93.6694 53.756C93.6694 53.2158 93.4549 52.6977 93.073 52.3156C92.691 51.9335 92.173 51.7187 91.6328 51.7184C91.3097 51.7183 90.9913 51.7952 90.7039 51.9428C90.4165 52.0904 90.1684 52.3044 89.9803 52.567C89.8691 52.8773 89.7474 53.1827 89.6151 53.4831C89.6024 53.5735 89.5958 53.6647 89.5952 53.756C89.5953 54.0239 89.6483 54.289 89.751 54.5364C89.8537 54.7837 90.0042 55.0084 90.1938 55.1976C90.3834 55.3867 90.6084 55.5367 90.856 55.6388C91.1036 55.7409 91.3689 55.7931 91.6368 55.7926H91.6328ZM100.656 40.3445C100.489 39.8403 100.308 39.344 100.111 38.8557C99.9978 39.0179 99.9375 39.2109 99.938 39.4085C99.9386 39.6222 100.01 39.8296 100.14 39.9988C100.271 40.168 100.453 40.2895 100.66 40.3445H100.656ZM89.7729 56.4298C89.7726 56.1306 89.6546 55.8435 89.4444 55.6307C89.2341 55.4178 88.9485 55.2963 88.6494 55.2924C88.3174 55.8133 87.95 56.3107 87.5497 56.7811C87.6243 57.0098 87.7693 57.209 87.964 57.3502C88.1586 57.4913 88.393 57.5673 88.6335 57.5672C88.9353 57.5672 89.2248 57.4474 89.4385 57.2342C89.6521 57.0209 89.7723 56.7316 89.7729 56.4298ZM97.683 50.6197C98.1984 50.6197 98.6927 50.415 99.0572 50.0506C99.4216 49.6861 99.6264 49.1918 99.6264 48.6764C99.6264 48.161 99.4216 47.6668 99.0572 47.3023C98.6927 46.9379 98.1984 46.7331 97.683 46.7331C97.1676 46.7331 96.6734 46.9379 96.3089 47.3023C95.9445 47.6668 95.7397 48.161 95.7397 48.6764C95.7396 48.9317 95.7898 49.1844 95.8874 49.4203C95.985 49.6561 96.1282 49.8704 96.3086 50.0509C96.4891 50.2313 96.7034 50.3745 96.9392 50.4721C97.1751 50.5697 97.4278 50.6199 97.683 50.6197ZM59.0343 36.0867C59.3771 36.0851 59.7053 35.9478 59.947 35.7049C60.1888 35.462 60.3246 35.1332 60.3246 34.7905C60.3246 34.5357 60.2492 34.2867 60.1079 34.0748C59.9666 33.8628 59.7657 33.6974 59.5306 33.5995C59.3712 33.533 59.2001 33.4993 59.0274 33.5002C58.6847 33.5002 58.3559 33.636 58.1129 33.8778C57.87 34.1196 57.7328 34.4477 57.7312 34.7905C57.7312 34.9613 57.765 35.1304 57.8305 35.2881C57.8961 35.4458 57.9922 35.589 58.1133 35.7095C58.2344 35.8299 58.3781 35.9253 58.5362 35.99C58.6942 36.0547 58.8635 36.0876 59.0343 36.0867ZM61.0322 37.5635C61.0322 38.1002 61.2454 38.6149 61.625 38.9945C62.0045 39.374 62.5192 39.5872 63.0559 39.5872C63.4684 39.5871 63.8709 39.4612 64.2099 39.2262C64.5488 38.9912 64.8079 38.6583 64.9526 38.2721L64.9734 38.2136C65.0441 38.0041 65.0803 37.7846 65.0806 37.5635C65.0806 37.2977 65.0282 37.0344 64.9265 36.7888C64.8247 36.5432 64.6756 36.3201 64.4875 36.1322C64.2995 35.9442 64.0763 35.7952 63.8307 35.6936C63.585 35.5919 63.3218 35.5397 63.0559 35.5398C62.5192 35.5398 62.0045 35.753 61.625 36.1325C61.2454 36.512 61.0322 37.0268 61.0322 37.5635ZM60.0844 25.0075C60.4512 25.0079 60.8093 24.8963 61.1109 24.6875C61.4124 24.4787 61.643 24.1828 61.7716 23.8393C61.7786 23.8214 61.7845 23.8036 61.7905 23.7867C61.8549 23.6009 61.8885 23.4057 61.8898 23.2091C61.8898 22.9723 61.843 22.7379 61.7522 22.5192C61.6614 22.3006 61.5283 22.102 61.3606 21.9349C61.1928 21.7678 60.9938 21.6355 60.7748 21.5456C60.5558 21.4556 60.3212 21.4097 60.0844 21.4107C59.6074 21.4107 59.15 21.6001 58.8127 21.9374C58.4755 22.2747 58.286 22.7321 58.286 23.2091C58.286 23.686 58.4755 24.1434 58.8127 24.4807C59.15 24.818 59.6074 25.0075 60.0844 25.0075ZM60.0844 31.6085C60.4967 31.6083 60.899 31.4822 61.2377 31.2472C61.5765 31.0123 61.8354 30.6795 61.9801 30.2935L62.0009 30.2339C62.0717 30.0248 62.1079 29.8056 62.1081 29.5848C62.1081 29.0481 61.8949 28.5334 61.5154 28.1539C61.1359 27.7744 60.6211 27.5611 60.0844 27.5611C59.5484 27.5622 59.0347 27.7759 58.656 28.1553C58.2773 28.5347 58.0647 29.0488 58.0647 29.5848C58.0647 30.1209 58.2773 30.635 58.656 31.0144C59.0347 31.3938 59.5484 31.6075 60.0844 31.6085ZM56.701 27.3319C56.9725 27.3319 57.2328 27.2241 57.4249 27.0322C57.617 26.8404 57.725 26.5801 57.7252 26.3086C57.7252 26.037 57.6173 25.7764 57.4253 25.5844C57.2332 25.3923 56.9726 25.2844 56.701 25.2844C56.4304 25.2859 56.1714 25.3945 55.9806 25.5865C55.7898 25.7784 55.6827 26.038 55.6827 26.3086C55.683 26.5791 55.7902 26.8384 55.9809 27.0301C56.1717 27.2218 56.4306 27.3303 56.701 27.3319ZM64.2301 27.2326L64.2578 27.2505C64.6251 27.4743 65.0466 27.593 65.4766 27.5939C65.786 27.5939 66.0924 27.5329 66.3783 27.4145C66.6642 27.2961 66.9239 27.1226 67.1427 26.9038C67.3615 26.685 67.535 26.4252 67.6535 26.1394C67.7719 25.8535 67.8328 25.5471 67.8328 25.2377C67.8329 24.9282 67.7721 24.6217 67.6537 24.3357C67.5354 24.0498 67.3619 23.7899 67.143 23.571C66.9242 23.3521 66.6645 23.1785 66.3785 23.06C66.0926 22.9415 65.7861 22.8805 65.4766 22.8805C64.8522 22.8805 64.2532 23.1283 63.8113 23.5695C63.3693 24.0107 63.1205 24.6093 63.1195 25.2337C63.1194 25.634 63.2213 26.0277 63.4156 26.3776C63.61 26.7275 63.8903 27.0221 64.2301 27.2336V27.2326ZM69.7761 23.5723C70.0476 23.572 70.3079 23.464 70.4997 23.272C70.6916 23.0799 70.7994 22.8195 70.7994 22.5481C70.7991 22.2767 70.6912 22.0166 70.4994 21.8248C70.3075 21.633 70.0474 21.5251 69.7761 21.5248C69.5046 21.5248 69.2443 21.6326 69.0522 21.8244C68.8601 22.0163 68.7521 22.2766 68.7519 22.5481C68.7519 22.8197 68.8598 23.0802 69.0518 23.2723C69.2439 23.4644 69.5045 23.5723 69.7761 23.5723ZM78.1131 26.3453C78.6229 26.3453 79.1119 26.1428 79.4724 25.7823C79.833 25.4217 80.0355 24.9327 80.0355 24.4229C80.0355 24.1183 79.9627 23.8182 79.8231 23.5475C79.1462 23.4906 78.4614 23.4618 77.7687 23.4611C77.3194 23.4611 76.8724 23.4734 76.4278 23.4979C76.2719 23.7812 76.1903 24.0995 76.1906 24.4229C76.1906 24.9327 76.3931 25.4217 76.7537 25.7823C77.1142 26.1428 77.6032 26.3453 78.1131 26.3453ZM72.7536 24.2194C73.0252 24.2194 73.2858 24.1115 73.4778 23.9194C73.6699 23.7273 73.7778 23.4668 73.7778 23.1952C73.7784 23.0603 73.7523 22.9267 73.701 22.802C73.6498 22.6773 73.5744 22.5639 73.4793 22.4683C73.3841 22.3728 73.271 22.297 73.1465 22.2453C73.0219 22.1936 72.8884 22.1669 72.7536 22.1669C72.4823 22.1672 72.2222 22.2751 72.0303 22.4669C71.8385 22.6588 71.7306 22.9189 71.7303 23.1902C71.7297 23.325 71.7557 23.4587 71.8068 23.5835C71.8579 23.7082 71.9331 23.8217 72.0282 23.9173C72.1233 24.0129 72.2363 24.0888 72.3608 24.1407C72.4853 24.1925 72.6187 24.2193 72.7536 24.2194ZM73.5208 31.2393C74.3839 31.2393 75.2117 30.8965 75.822 30.2861C76.4323 29.6758 76.7752 28.8481 76.7752 27.9849C76.7752 27.1217 76.4323 26.2939 75.822 25.6834C75.2118 25.0729 74.384 24.7298 73.5208 24.7296C72.6595 24.7317 71.8342 25.0748 71.2254 25.684C70.6166 26.2932 70.2739 27.1187 70.2724 27.98C70.2726 28.8425 70.6152 29.6697 71.2248 30.2798C71.8344 30.89 72.6612 31.2333 73.5238 31.2344L73.5208 31.2393ZM77.1374 29.8498C77.1369 30.2492 77.2148 30.6447 77.3667 31.014L77.3756 31.0378C77.6092 31.5961 78.0024 32.0729 78.506 32.4084C79.0096 32.7439 79.6011 32.9231 80.2062 32.9236C80.6097 32.9235 81.0092 32.8438 81.3819 32.689C81.7546 32.5343 82.0931 32.3076 82.378 32.022C82.663 31.7363 82.8888 31.3972 83.0425 31.0241C83.1963 30.6511 83.2749 30.2513 83.274 29.8478C83.2742 29.4448 83.1949 29.0456 83.0407 28.6732C82.8865 28.3007 82.6605 27.9623 82.3755 27.6772C82.0906 27.3922 81.7522 27.166 81.3798 27.0118C81.0074 26.8575 80.6083 26.7781 80.2052 26.7781C79.3919 26.7791 78.6122 27.103 78.0375 27.6786C77.4628 28.2543 77.1401 29.0345 77.1404 29.8478L77.1374 29.8498ZM68.7012 27.8013C68.9725 27.8011 69.2327 27.6932 69.4245 27.5013C69.6163 27.3095 69.7242 27.0494 69.7245 26.7781C69.725 26.5068 69.6179 26.2463 69.4266 26.0539C69.2353 25.8615 68.9755 25.7529 68.7042 25.7518C68.4326 25.7518 68.172 25.8597 67.98 26.0518C67.7879 26.2439 67.68 26.5044 67.68 26.7761C67.6802 27.0476 67.7883 27.3078 67.9803 27.4997C68.1724 27.6916 68.4327 27.7993 68.7042 27.7993L68.7012 27.8013Z" fill="url(#paint41_linear_581_13013)"/>
<defs>
<linearGradient id="paint0_linear_581_13013" x1="4.64263" y1="41.3597" x2="46.1763" y2="72.5488" gradientUnits="userSpaceOnUse">
<stop offset="0.07" stop-color="#F1553B"/>
<stop offset="0.41" stop-color="#C6D92D"/>
<stop offset="0.74" stop-color="#2DA44E"/>
<stop offset="1" stop-color="#20A049"/>
</linearGradient>
<linearGradient id="paint1_linear_581_13013" x1="19.215" y1="21.757" x2="44.7516" y2="40.9343" gradientUnits="userSpaceOnUse">
<stop offset="0.07" stop-color="#F1553B"/>
<stop offset="0.41" stop-color="#C6D92D"/>
<stop offset="0.74" stop-color="#2DA44E"/>
<stop offset="1" stop-color="#20A049"/>
</linearGradient>
<linearGradient id="paint2_linear_581_13013" x1="10.1305" y1="8.45" x2="10.9771" y2="8.8341" gradientUnits="userSpaceOnUse">
<stop stop-color="#34A851"/>
<stop offset="0.68" stop-color="#33A850"/>
<stop offset="1" stop-color="#20A049"/>
</linearGradient>
<linearGradient id="paint3_linear_581_13013" x1="3.51358" y1="7.04748" x2="12.1651" y2="10.9738" gradientUnits="userSpaceOnUse">
<stop stop-color="#CBDB2A"/>
<stop offset="0.11" stop-color="#A6CE30"/>
<stop offset="0.32" stop-color="#68B93B"/>
<stop offset="0.5" stop-color="#3BA942"/>
<stop offset="0.64" stop-color="#1FA047"/>
<stop offset="0.72" stop-color="#159C49"/>
<stop offset="1" stop-color="#0D4C28"/>
</linearGradient>
<linearGradient id="paint4_linear_581_13013" x1="8.60474" y1="9.87483" x2="8.98486" y2="9.87483" gradientUnits="userSpaceOnUse">
<stop stop-color="#34A851"/>
<stop offset="0.68" stop-color="#33A850"/>
<stop offset="1" stop-color="#20A049"/>
</linearGradient>
<linearGradient id="paint5_linear_581_13013" x1="8.46875" y1="7.88802" x2="8.84888" y2="7.88802" gradientUnits="userSpaceOnUse">
<stop stop-color="#34A851"/>
<stop offset="0.68" stop-color="#33A850"/>
<stop offset="1" stop-color="#20A049"/>
</linearGradient>
<linearGradient id="paint6_linear_581_13013" x1="9.19334" y1="5.52971" x2="9.9258" y2="14.1376" gradientUnits="userSpaceOnUse">
<stop stop-color="#34A851"/>
<stop offset="0.68" stop-color="#33A850"/>
<stop offset="1" stop-color="#20A049"/>
</linearGradient>
<linearGradient id="paint7_linear_581_13013" x1="7.71338" y1="5.65594" x2="8.44584" y2="14.2628" gradientUnits="userSpaceOnUse">
<stop stop-color="#34A851"/>
<stop offset="0.68" stop-color="#33A850"/>
<stop offset="1" stop-color="#20A049"/>
</linearGradient>
<linearGradient id="paint8_linear_581_13013" x1="6.92944" y1="5.72237" x2="7.6619" y2="14.3303" gradientUnits="userSpaceOnUse">
<stop stop-color="#34A851"/>
<stop offset="0.68" stop-color="#33A850"/>
<stop offset="1" stop-color="#20A049"/>
</linearGradient>
<linearGradient id="paint9_linear_581_13013" x1="7.92875" y1="5.63781" x2="8.66121" y2="14.2447" gradientUnits="userSpaceOnUse">
<stop stop-color="#34A851"/>
<stop offset="0.68" stop-color="#33A850"/>
<stop offset="1" stop-color="#20A049"/>
</linearGradient>
<linearGradient id="paint10_linear_581_13013" x1="8.52232" y1="5.58741" x2="9.25478" y2="14.1943" gradientUnits="userSpaceOnUse">
<stop stop-color="#34A851"/>
<stop offset="0.68" stop-color="#33A850"/>
<stop offset="1" stop-color="#20A049"/>
</linearGradient>
<linearGradient id="paint11_linear_581_13013" x1="9.7123" y1="5.48606" x2="10.4448" y2="14.093" gradientUnits="userSpaceOnUse">
<stop stop-color="#34A851"/>
<stop offset="0.68" stop-color="#33A850"/>
<stop offset="1" stop-color="#20A049"/>
</linearGradient>
<linearGradient id="paint12_linear_581_13013" x1="9.37186" y1="5.51483" x2="10.1043" y2="14.1217" gradientUnits="userSpaceOnUse">
<stop stop-color="#34A851"/>
<stop offset="0.68" stop-color="#33A850"/>
<stop offset="1" stop-color="#20A049"/>
</linearGradient>
<linearGradient id="paint13_linear_581_13013" x1="8.17393" y1="5.61722" x2="8.90639" y2="14.2241" gradientUnits="userSpaceOnUse">
<stop stop-color="#34A851"/>
<stop offset="0.68" stop-color="#33A850"/>
<stop offset="1" stop-color="#20A049"/>
</linearGradient>
<linearGradient id="paint14_linear_581_13013" x1="9.01769" y1="5.5447" x2="9.75015" y2="14.1526" gradientUnits="userSpaceOnUse">
<stop stop-color="#34A851"/>
<stop offset="0.68" stop-color="#33A850"/>
<stop offset="1" stop-color="#20A049"/>
</linearGradient>
<linearGradient id="paint15_linear_581_13013" x1="7.91884" y1="5.63795" x2="8.6513" y2="14.2458" gradientUnits="userSpaceOnUse">
<stop stop-color="#34A851"/>
<stop offset="0.68" stop-color="#33A850"/>
<stop offset="1" stop-color="#20A049"/>
</linearGradient>
<linearGradient id="paint16_linear_581_13013" x1="6.42515" y1="5.76501" x2="7.15662" y2="14.3729" gradientUnits="userSpaceOnUse">
<stop stop-color="#34A851"/>
<stop offset="0.68" stop-color="#33A850"/>
<stop offset="1" stop-color="#20A049"/>
</linearGradient>
<linearGradient id="paint17_linear_581_13013" x1="7.09126" y1="5.70838" x2="7.82372" y2="14.3163" gradientUnits="userSpaceOnUse">
<stop stop-color="#34A851"/>
<stop offset="0.68" stop-color="#33A850"/>
<stop offset="1" stop-color="#20A049"/>
</linearGradient>
<linearGradient id="paint18_linear_581_13013" x1="8.1413" y1="5.61902" x2="8.87376" y2="14.2269" gradientUnits="userSpaceOnUse">
<stop stop-color="#CBDB2A"/>
<stop offset="0.07" stop-color="#BCD62D"/>
<stop offset="0.39" stop-color="#7EC23B"/>
<stop offset="0.67" stop-color="#51B345"/>
<stop offset="0.88" stop-color="#35AA4B"/>
<stop offset="1" stop-color="#2BA74D"/>
</linearGradient>
<linearGradient id="paint19_linear_581_13013" x1="7.3463" y1="5.68654" x2="8.07876" y2="14.2944" gradientUnits="userSpaceOnUse">
<stop stop-color="#34A851"/>
<stop offset="0.68" stop-color="#33A850"/>
<stop offset="1" stop-color="#20A049"/>
</linearGradient>
<linearGradient id="paint20_linear_581_13013" x1="10.6841" y1="5.40261" x2="11.4155" y2="14.0105" gradientUnits="userSpaceOnUse">
<stop stop-color="#34A851"/>
<stop offset="0.68" stop-color="#33A850"/>
<stop offset="1" stop-color="#20A049"/>
</linearGradient>
<linearGradient id="paint21_linear_581_13013" x1="10.2771" y1="7.17638" x2="10.5917" y2="7.17638" gradientUnits="userSpaceOnUse">
<stop stop-color="#34A851"/>
<stop offset="0.68" stop-color="#33A850"/>
<stop offset="1" stop-color="#20A049"/>
</linearGradient>
<linearGradient id="paint22_linear_581_13013" x1="9.8058" y1="13.9251" x2="8.54136" y2="23.1086" gradientUnits="userSpaceOnUse">
<stop stop-color="#34A851"/>
<stop offset="0.68" stop-color="#33A850"/>
<stop offset="1" stop-color="#20A049"/>
</linearGradient>
<linearGradient id="paint23_linear_581_13013" x1="10.5414" y1="14.0262" x2="9.27699" y2="23.2098" gradientUnits="userSpaceOnUse">
<stop stop-color="#34A851"/>
<stop offset="0.68" stop-color="#33A850"/>
<stop offset="1" stop-color="#20A049"/>
</linearGradient>
<linearGradient id="paint24_linear_581_13013" x1="9.00186" y1="13.8138" x2="7.73742" y2="22.9983" gradientUnits="userSpaceOnUse">
<stop stop-color="#34A851"/>
<stop offset="0.68" stop-color="#33A850"/>
<stop offset="1" stop-color="#20A049"/>
</linearGradient>
<linearGradient id="paint25_linear_581_13013" x1="8.16339" y1="13.6987" x2="6.89895" y2="22.8822" gradientUnits="userSpaceOnUse">
<stop stop-color="#34A851"/>
<stop offset="0.68" stop-color="#33A850"/>
<stop offset="1" stop-color="#20A049"/>
</linearGradient>
<linearGradient id="paint26_linear_581_13013" x1="9.17956" y1="13.8386" x2="7.91413" y2="23.0221" gradientUnits="userSpaceOnUse">
<stop stop-color="#34A851"/>
<stop offset="0.68" stop-color="#33A850"/>
<stop offset="1" stop-color="#20A049"/>
</linearGradient>
<linearGradient id="paint27_linear_581_13013" x1="9.81668" y1="13.9259" x2="8.55224" y2="23.1105" gradientUnits="userSpaceOnUse">
<stop stop-color="#34A851"/>
<stop offset="0.68" stop-color="#33A850"/>
<stop offset="1" stop-color="#20A049"/>
</linearGradient>
<linearGradient id="paint28_linear_581_13013" x1="11.11" y1="14.1037" x2="9.84458" y2="23.2882" gradientUnits="userSpaceOnUse">
<stop stop-color="#34A851"/>
<stop offset="0.68" stop-color="#33A850"/>
<stop offset="1" stop-color="#20A049"/>
</linearGradient>
<linearGradient id="paint29_linear_581_13013" x1="10.6813" y1="14.0451" x2="9.41687" y2="23.2296" gradientUnits="userSpaceOnUse">
<stop stop-color="#34A851"/>
<stop offset="0.68" stop-color="#33A850"/>
<stop offset="1" stop-color="#20A049"/>
</linearGradient>
<linearGradient id="paint30_linear_581_13013" x1="9.4892" y1="13.8813" x2="8.22477" y2="23.0648" gradientUnits="userSpaceOnUse">
<stop stop-color="#34A851"/>
<stop offset="0.68" stop-color="#33A850"/>
<stop offset="1" stop-color="#20A049"/>
</linearGradient>
<linearGradient id="paint31_linear_581_13013" x1="10.2238" y1="13.9826" x2="8.95939" y2="23.1662" gradientUnits="userSpaceOnUse">
<stop stop-color="#34A851"/>
<stop offset="0.68" stop-color="#33A850"/>
<stop offset="1" stop-color="#20A049"/>
</linearGradient>
<linearGradient id="paint32_linear_581_13013" x1="9.10916" y1="13.8288" x2="7.84472" y2="23.0133" gradientUnits="userSpaceOnUse">
<stop stop-color="#34A851"/>
<stop offset="0.68" stop-color="#33A850"/>
<stop offset="1" stop-color="#20A049"/>
</linearGradient>
<linearGradient id="paint33_linear_581_13013" x1="7.6443" y1="13.6272" x2="6.37986" y2="22.8107" gradientUnits="userSpaceOnUse">
<stop stop-color="#34A851"/>
<stop offset="0.68" stop-color="#33A850"/>
<stop offset="1" stop-color="#20A049"/>
</linearGradient>
<linearGradient id="paint34_linear_581_13013" x1="8.3181" y1="13.7195" x2="7.05366" y2="22.9041" gradientUnits="userSpaceOnUse">
<stop stop-color="#34A851"/>
<stop offset="0.68" stop-color="#33A850"/>
<stop offset="1" stop-color="#20A049"/>
</linearGradient>
<linearGradient id="paint35_linear_581_13013" x1="9.36917" y1="13.8644" x2="8.10474" y2="23.049" gradientUnits="userSpaceOnUse">
<stop stop-color="#34A851"/>
<stop offset="0.68" stop-color="#33A850"/>
<stop offset="1" stop-color="#20A049"/>
</linearGradient>
<linearGradient id="paint36_linear_581_13013" x1="8.5455" y1="13.7514" x2="7.28106" y2="22.935" gradientUnits="userSpaceOnUse">
<stop stop-color="#34A851"/>
<stop offset="0.68" stop-color="#33A850"/>
<stop offset="1" stop-color="#20A049"/>
</linearGradient>
<linearGradient id="paint37_linear_581_13013" x1="11.9369" y1="14.2179" x2="10.6724" y2="23.4024" gradientUnits="userSpaceOnUse">
<stop stop-color="#34A851"/>
<stop offset="0.68" stop-color="#33A850"/>
<stop offset="1" stop-color="#20A049"/>
</linearGradient>
<linearGradient id="paint38_linear_581_13013" x1="11.5974" y1="14.1711" x2="10.333" y2="23.3556" gradientUnits="userSpaceOnUse">
<stop stop-color="#34A851"/>
<stop offset="0.68" stop-color="#33A850"/>
<stop offset="1" stop-color="#20A049"/>
</linearGradient>
<linearGradient id="paint39_linear_581_13013" x1="17.5432" y1="7.42936" x2="6.57018" y2="19.9646" gradientUnits="userSpaceOnUse">
<stop stop-color="#34A851"/>
<stop offset="0.68" stop-color="#33A850"/>
<stop offset="1" stop-color="#20A049"/>
</linearGradient>
<linearGradient id="paint40_linear_581_13013" x1="13.7795" y1="10.9556" x2="8.60956" y2="16.86" gradientUnits="userSpaceOnUse">
<stop stop-color="#C6D92E"/>
<stop offset="0.07" stop-color="#B1D231"/>
<stop offset="0.31" stop-color="#73BD3B"/>
<stop offset="0.51" stop-color="#46AD43"/>
<stop offset="0.67" stop-color="#2AA447"/>
<stop offset="0.75" stop-color="#20A049"/>
</linearGradient>
<linearGradient id="paint41_linear_581_13013" x1="48.5586" y1="39.9028" x2="105.435" y2="55.9752" gradientUnits="userSpaceOnUse">
<stop offset="0.05" stop-color="#EB4335"/>
<stop offset="0.38" stop-color="#C6D92D"/>
<stop offset="0.68" stop-color="#33A850"/>
<stop offset="1" stop-color="#20A049"/>
</linearGradient>
</defs>
</svg>
