<svg width="25" height="24" viewBox="0 0 25 24" fill="none" xmlns="http://www.w3.org/2000/svg">
<path d="M17.8404 16.6569C16.9038 17.5935 14.9452 19.5521 13.5974 20.8999C12.8163 21.681 11.5513 21.6814 10.7702 20.9003C9.44594 19.576 7.52519 17.6553 6.52674 16.6569C3.40255 13.5327 3.40255 8.46734 6.52674 5.34315C9.65093 2.21895 14.7163 2.21895 17.8404 5.34315C20.9646 8.46734 20.9646 13.5327 17.8404 16.6569Z" stroke="#060810" stroke-width="2" stroke-linecap="round" stroke-linejoin="round"/>
<path d="M15.1836 11C15.1836 12.6569 13.8404 14 12.1836 14C10.5267 14 9.18359 12.6569 9.18359 11C9.18359 9.34315 10.5267 8 12.1836 8C13.8404 8 15.1836 9.34315 15.1836 11Z" stroke="#060810" stroke-width="2" stroke-linecap="round" stroke-linejoin="round"/>
</svg>
