<svg width="25" height="24" viewBox="0 0 25 24" fill="none" xmlns="http://www.w3.org/2000/svg">
<path d="M21.1836 3L15.1836 9M15.1836 9V4M15.1836 9H20.1836M5.18359 3C4.07902 3 3.18359 3.89543 3.18359 5V6C3.18359 14.2843 9.89932 21 18.1836 21H19.1836C20.2882 21 21.1836 20.1046 21.1836 19V15.7208C21.1836 15.2903 20.9082 14.9082 20.4998 14.7721L16.0064 13.2743C15.5343 13.1169 15.0183 13.3306 14.7957 13.7757L13.6671 16.033C11.2224 14.9308 9.25284 12.9612 8.1506 10.5165L10.4079 9.38787C10.853 9.16531 11.0667 8.64932 10.9093 8.17721L9.41152 3.68377C9.2754 3.27543 8.89326 3 8.46283 3H5.18359Z" stroke="#060810" stroke-width="2" stroke-linecap="round" stroke-linejoin="round"/>
</svg>
