<svg width="58" height="57" viewBox="0 0 58 57" fill="none" xmlns="http://www.w3.org/2000/svg">
<g clip-path="url(#clip0_325_25423)">
<path d="M46.505 8.51074H33.333V21.6827H46.505V8.51074Z" fill="#C6D92D"/>
<path d="M53.7124 48.4834H26.1122C24.7104 48.4834 23.5742 49.6196 23.5742 51.0213V54.3588C23.5742 55.7605 24.7104 56.8967 26.1122 56.8967H53.7124C55.1141 56.8967 56.2503 55.7605 56.2503 54.3588V51.0213C56.2503 49.6196 55.1141 48.4834 53.7124 48.4834Z" fill="#20A049"/>
<path d="M50.7813 1.04935H29.0311C27.6294 1.04935 26.4931 2.18556 26.4931 3.5873V19.9063C21.7384 21.1147 18.8636 25.9487 20.072 30.7034C20.0959 30.7975 20.1213 30.8912 20.1483 30.9845C21.0365 34.398 21.1634 38.9156 19.3615 40.7556C18.346 41.6386 16.9273 41.8921 15.6688 41.4155C14.2983 41.2018 13.1262 40.3156 12.5471 39.0552C10.9228 35.3117 14.1968 28.2181 15.5546 25.8578C15.8591 25.3883 23.0161 14.2721 15.6815 7.73685C14.9328 6.95008 8.27065 0.0468566 2.86482 0.744793C2.16402 0.835842 1.66976 1.47794 1.76081 2.17874C1.85186 2.87953 2.49396 3.37379 3.19475 3.28274C4.28036 3.20629 5.36676 3.4209 6.34181 3.90454L5.18704 5.35117C4.31177 6.44471 4.48784 8.04061 5.58042 8.917L10.3518 12.7239C11.4402 13.607 13.0387 13.4404 13.9216 12.3518C13.9374 12.3323 13.953 12.3125 13.9682 12.2925L15.0722 10.8839C18.7395 16.2009 13.5114 24.3858 13.4098 24.5254C13.1814 24.9315 7.77559 34.3853 10.2247 40.0703C11.1171 42.069 12.9424 43.495 15.0976 43.8773C15.7624 44.0399 16.4436 44.1249 17.1279 44.1311C18.6469 44.1828 20.1186 43.5987 21.1887 42.5195C23.955 39.7912 23.6759 34.2457 22.6861 30.3373C21.7053 27.1428 23.3702 23.7353 26.493 22.5458V43.56C26.493 44.9618 27.6292 46.098 29.0309 46.098H50.7812C52.1829 46.098 53.3191 44.9618 53.3191 43.56V3.5873C53.3193 2.18556 52.1831 1.04935 50.7813 1.04935ZM44.9821 29.7028H34.8303C34.1295 29.7028 33.5613 29.1346 33.5613 28.4338C33.5613 27.733 34.1295 27.1649 34.8303 27.1649H44.9821C45.6829 27.1649 46.2511 27.733 46.2511 28.4338C46.2511 29.1346 45.6829 29.7028 44.9821 29.7028ZM49.0301 21.6702C49.0301 23.0719 47.8939 24.2082 46.4922 24.2082H33.3329C31.9312 24.2082 30.795 23.0719 30.795 21.6702V8.48554C30.795 7.0838 31.9312 5.94759 33.3329 5.94759H46.4922C47.8939 5.94759 49.0301 7.0838 49.0301 8.48554V21.6702Z" fill="#20A049"/>
</g>
<defs>
<clipPath id="clip0_325_25423">
<rect width="56.2017" height="56.2017" fill="white" transform="translate(0.899414 0.695312)"/>
</clipPath>
</defs>
</svg>
