<svg width="83" height="78" viewBox="0 0 83 78" fill="none" xmlns="http://www.w3.org/2000/svg">
<path d="M11.1121 31.1021L5.90918 29.8519C6.38184 27.8905 7.01528 25.9512 7.79209 24.0878L12.7324 26.1416C12.064 27.7453 11.5187 29.4142 11.1121 31.1021ZM15.1143 21.4944L10.5569 18.6934C11.6134 16.9787 12.8151 15.3319 14.1286 13.7987L18.195 17.2725C17.062 18.5952 16.0255 20.0158 15.1143 21.4944ZM21.895 13.5785L18.4166 9.51732C19.9516 8.20617 21.6007 7.00624 23.3177 5.9511L26.1222 10.5027C24.6415 11.4125 23.2191 12.4473 21.895 13.5785ZM30.7741 8.12429L28.718 3.19034C30.5838 2.41475 32.5253 1.78219 34.4885 1.31006L35.7413 6.50564C34.0515 6.91206 32.3805 7.45659 30.7741 8.12429Z" fill="#C6D92D"/>
<path d="M43.6601 0.239746C42.6059 0.239746 41.5816 0.279984 40.5692 0.359405L40.9691 5.68712C41.8422 5.61859 42.7814 5.5838 43.66 5.5838C61.9335 5.5838 76.9711 20.5276 76.9711 38.8959C76.9711 57.2643 61.9547 72.2079 43.5579 72.2079C26.4017 72.2079 12.2289 59.2112 10.3951 42.5612L12.0358 43.8173L15.2904 39.5755L9.17677 34.8969C8.15923 34.1183 6.73176 34.1696 5.77326 35.0192L0.0449219 40.096L3.59691 44.0932L5.03738 42.8167C7.01149 62.2973 23.5323 77.5523 43.5547 77.5523C64.9025 77.5523 82.3228 60.2113 82.3228 38.896C82.3228 17.5808 64.9207 0.239746 43.6601 0.239746Z" fill="#C6D92D"/>
<path d="M20.2891 52.2755L41.1341 62.297L41.1415 40.9886L20.2891 29.5405V52.2755Z" fill="#20A049"/>
<path d="M48.0273 40.988L48.0968 62.3053L68.9597 52.2753V29.5308L48.0273 40.988Z" fill="#20A049"/>
<path d="M24.3613 23.921L44.5858 35.0227L64.8788 23.9212L44.5854 14.207L24.3613 23.921Z" fill="#20A049"/>
</svg>
