<svg width="52" height="53" viewBox="0 0 52 53" fill="none" xmlns="http://www.w3.org/2000/svg">
<ellipse cx="26.1059" cy="26.275" rx="25.7309" ry="25.7311" fill="#060810"/>
<path d="M16.5 36.1693C19.875 36.1693 24.375 35.0443 24.375 27.1693V18.1693C24.375 16.763 23.5245 15.9001 22.125 15.9193H17.625C16.2188 15.9193 15.375 16.763 15.375 18.1378V24.9193C15.375 26.3255 16.2188 27.1693 17.625 27.1693C18.75 27.1693 18.75 27.1693 18.75 28.2943V29.4193C18.75 30.5443 17.625 31.6693 16.5 31.6693C15.375 31.6693 15.375 31.6783 15.375 32.8291V35.0443C15.375 36.1693 15.375 36.1693 16.5 36.1693Z" stroke="#20A049" stroke-width="2.25" stroke-linecap="round" stroke-linejoin="round"/>
<path d="M30 36.1693C33.375 36.1693 37.875 35.0443 37.875 27.1693V18.1693C37.875 16.763 37.0234 15.9001 35.625 15.9193H31.125C29.7188 15.9193 28.875 16.763 28.875 18.1378V24.9193C28.875 26.3255 29.7188 27.1693 31.125 27.1693H31.9688C31.9688 29.7005 32.25 31.6693 28.875 31.6693V35.0443C28.875 36.1693 28.875 36.1693 30 36.1693Z" stroke="#20A049" stroke-width="2.25" stroke-linecap="round" stroke-linejoin="round"/>
</svg>
